<svg width="319" height="46" viewBox="0 0 319 46" fill="none" xmlns="http://www.w3.org/2000/svg">
<rect width="319" height="46" fill="white"/>
<path d="M34.36 18.152H27.096V37H22.712V18.152H15.448V14.28H34.36V18.152ZM56.4765 33.128V37H40.7005V14.28H56.1885V18.152H45.1165V23.624H54.6845V27.208H45.1165V33.128H56.4765ZM76.9753 20.232C76.8259 20.0827 76.5486 19.88 76.1433 19.624C75.7593 19.368 75.2793 19.1227 74.7033 18.888C74.1486 18.6533 73.5406 18.4507 72.8793 18.28C72.2179 18.088 71.5459 17.992 70.8633 17.992C69.6686 17.992 68.7619 18.216 68.1433 18.664C67.5459 19.112 67.2473 19.7413 67.2473 20.552C67.2473 21.1707 67.4393 21.6613 67.8233 22.024C68.2073 22.3867 68.7833 22.696 69.5513 22.952C70.3193 23.208 71.2793 23.4853 72.4313 23.784C73.9246 24.1467 75.2153 24.5947 76.3033 25.128C77.4126 25.64 78.2553 26.3227 78.8313 27.176C79.4286 28.008 79.7273 29.1173 79.7273 30.504C79.7273 31.72 79.5033 32.7653 79.0553 33.64C78.6073 34.4933 77.9886 35.1867 77.1993 35.72C76.4099 36.2533 75.5139 36.648 74.5113 36.904C73.5086 37.1387 72.4419 37.256 71.3113 37.256C70.1806 37.256 69.0499 37.1387 67.9193 36.904C66.7886 36.6693 65.7006 36.3387 64.6553 35.912C63.6099 35.464 62.6499 34.9307 61.7753 34.312L63.7273 30.504C63.9193 30.696 64.2606 30.952 64.7513 31.272C65.2419 31.5707 65.8393 31.88 66.5433 32.2C67.2473 32.4987 68.0153 32.7547 68.8473 32.968C69.6793 33.1813 70.5219 33.288 71.3753 33.288C72.5699 33.288 73.4766 33.0853 74.0953 32.68C74.7139 32.2747 75.0233 31.6987 75.0233 30.952C75.0233 30.2693 74.7779 29.736 74.2873 29.352C73.7966 28.968 73.1139 28.6373 72.2393 28.36C71.3646 28.0613 70.3299 27.7413 69.1353 27.4C67.7059 26.9947 66.5113 26.5467 65.5513 26.056C64.5913 25.544 63.8766 24.904 63.4073 24.136C62.9379 23.368 62.7033 22.408 62.7033 21.256C62.7033 19.6987 63.0659 18.3973 63.7913 17.352C64.5379 16.2853 65.5406 15.4853 66.7993 14.952C68.0579 14.3973 69.4553 14.12 70.9913 14.12C72.0579 14.12 73.0606 14.2373 73.9993 14.472C74.9593 14.7067 75.8553 15.016 76.6873 15.4C77.5193 15.784 78.2659 16.2 78.9273 16.648L76.9753 20.232ZM103.576 18.152H96.3122V37H91.9282V18.152H84.6642V14.28H103.576V18.152ZM119.705 37V33.4545L127.989 25.7841C128.694 25.1023 129.285 24.4886 129.762 23.9432C130.247 23.3977 130.614 22.8636 130.864 22.3409C131.114 21.8106 131.239 21.2386 131.239 20.625C131.239 19.9432 131.084 19.3561 130.773 18.8636C130.463 18.3636 130.038 17.9811 129.501 17.7159C128.963 17.4432 128.353 17.3068 127.671 17.3068C126.959 17.3068 126.338 17.4508 125.807 17.7386C125.277 18.0265 124.868 18.4394 124.58 18.9773C124.292 19.5152 124.148 20.1553 124.148 20.8977H119.478C119.478 19.375 119.823 18.053 120.512 16.9318C121.201 15.8106 122.167 14.9432 123.41 14.3295C124.652 13.7159 126.084 13.4091 127.705 13.4091C129.372 13.4091 130.823 13.7045 132.057 14.2955C133.3 14.8788 134.266 15.6894 134.955 16.7273C135.645 17.7652 135.989 18.9545 135.989 20.2955C135.989 21.1742 135.815 22.0417 135.466 22.8977C135.126 23.7538 134.516 24.7045 133.637 25.75C132.758 26.7879 131.52 28.0341 129.921 29.4886L126.523 32.8182V32.9773H136.296V37H119.705ZM171.859 24.52C170.557 24.5413 169.149 24.6587 167.635 24.872H167.443C167.144 24.872 166.931 24.7333 166.803 24.456L166.643 24.104C166.579 23.976 166.547 23.848 166.547 23.72C166.547 23.4213 166.749 23.2933 167.155 23.336C167.901 23.4 169.011 23.4533 170.483 23.496H187.635C187.976 23.496 188.243 23.3573 188.435 23.08L190.291 20.392C190.461 20.1787 190.632 20.072 190.803 20.072C190.952 20.072 191.101 20.136 191.251 20.264C192.851 21.736 194.024 22.8453 194.771 23.592C194.941 23.7627 195.037 23.912 195.059 24.04L195.091 24.136C195.091 24.328 194.941 24.4453 194.643 24.488C194.557 24.5093 194.429 24.52 194.259 24.52H171.859ZM210.194 14.536C210.557 14.536 210.834 14.3973 211.026 14.12L211.346 13.672C211.432 13.5653 211.517 13.448 211.602 13.32C211.709 13.192 211.816 13.0747 211.922 12.968C212.029 12.8613 212.125 12.808 212.21 12.808C212.36 12.808 212.765 13.064 213.426 13.576C214.109 14.0667 214.621 14.4933 214.962 14.856C215.069 15.0053 215.122 15.1227 215.122 15.208C215.122 15.3787 215.026 15.5173 214.834 15.624L214.61 15.752C214.418 15.8373 214.269 15.9333 214.162 16.04C214.077 16.1467 214.034 16.296 214.034 16.488V21.832C214.034 22.0667 214.098 22.2373 214.226 22.344C214.354 22.4293 214.525 22.4613 214.738 22.44H214.866H215.058C215.357 22.44 215.528 22.4933 215.57 22.6V22.632C215.57 22.7173 215.528 22.792 215.442 22.856C215.357 22.92 215.218 22.984 215.026 23.048L214.578 23.176C214.216 23.304 214.034 23.56 214.034 23.944V35.816C214.034 36.6267 213.96 37.2773 213.81 37.768C213.661 38.28 213.362 38.696 212.914 39.016C212.466 39.3573 211.794 39.592 210.898 39.72L210.706 39.752C210.557 39.752 210.429 39.688 210.322 39.56C210.216 39.4533 210.152 39.3147 210.13 39.144C210.024 38.376 209.853 37.8107 209.618 37.448C209.234 37 208.701 36.68 208.018 36.488C207.613 36.4027 207.41 36.2853 207.41 36.136C207.41 36.008 207.645 35.944 208.114 35.944C209.138 36.0293 209.906 36.072 210.418 36.072C210.632 36.072 210.781 36.0293 210.866 35.944C210.973 35.8373 211.026 35.6773 211.026 35.464V25.192C211.026 24.808 210.856 24.616 210.514 24.616C210.408 24.616 210.322 24.6267 210.258 24.648L207.314 25.576C206.952 25.704 206.77 25.9493 206.77 26.312C206.706 29.0853 206.386 31.56 205.81 33.736C205.234 35.8907 204.125 37.7893 202.482 39.432C202.205 39.752 201.992 39.8587 201.842 39.752C201.8 39.7093 201.778 39.6453 201.778 39.56C201.778 39.4107 201.821 39.24 201.906 39.048C202.632 37.4907 203.122 35.784 203.378 33.928C203.656 32.0507 203.816 29.8747 203.858 27.4C203.858 26.8667 203.72 26.6427 203.442 26.728C203.144 26.8133 202.962 26.9093 202.898 27.016L202.77 27.176C202.685 27.2827 202.578 27.336 202.45 27.336C202.344 27.336 202.237 27.2827 202.13 27.176C202.045 27.048 201.992 26.9093 201.97 26.76L201.714 24.392V24.328C201.714 23.944 201.917 23.7307 202.322 23.688L203.218 23.624C203.645 23.5813 203.858 23.3467 203.858 22.92V18.376C203.858 16.776 203.794 15.2933 203.666 13.928V13.8C203.666 13.48 203.805 13.32 204.082 13.32C204.125 13.32 204.232 13.3413 204.402 13.384L206.226 14.12L206.514 14.184C206.664 14.184 206.781 14.1307 206.866 14.024C206.952 13.9173 207.005 13.7787 207.026 13.608C207.09 12.8613 207.122 12.0933 207.122 11.304C207.122 10.8773 207.112 10.568 207.09 10.376C207.09 10.1413 207.154 9.97066 207.282 9.864C207.432 9.75733 207.634 9.72533 207.89 9.768C209.362 10.088 210.376 10.344 210.93 10.536C211.506 10.728 211.794 10.888 211.794 11.016C211.794 11.08 211.698 11.1653 211.506 11.272L211.282 11.4C211.069 11.5067 210.845 11.6773 210.61 11.912L208.882 13.704C208.712 13.8747 208.626 14.0347 208.626 14.184C208.626 14.2907 208.68 14.376 208.786 14.44C208.893 14.504 209.032 14.536 209.202 14.536H210.194ZM222.226 12.2C222.568 12.2 222.845 12.072 223.058 11.816L223.442 11.336C223.528 11.2507 223.677 11.0907 223.89 10.856C224.104 10.6 224.274 10.472 224.402 10.472C224.573 10.472 224.946 10.7173 225.522 11.208C226.12 11.6773 226.568 12.104 226.866 12.488C226.952 12.5947 226.994 12.712 226.994 12.84C226.994 13.0107 226.898 13.1493 226.706 13.256C226.664 13.256 226.557 13.3413 226.386 13.512C226.216 13.6827 226.13 13.8533 226.13 14.024V18.568C226.13 18.7387 226.152 18.856 226.194 18.92C226.258 18.9627 226.386 18.984 226.578 18.984H227.89C227.997 18.984 228.072 18.9627 228.114 18.92C228.178 18.8773 228.242 18.792 228.306 18.664C228.498 18.3227 228.818 17.32 229.266 15.656C229.309 15.4853 229.362 15.3467 229.426 15.24C229.512 15.1333 229.576 15.08 229.618 15.08C229.725 15.08 229.778 15.304 229.778 15.752L229.842 18.248C229.842 18.4187 229.874 18.568 229.938 18.696C230.002 18.8027 230.12 18.9307 230.29 19.08C230.44 19.208 230.536 19.3573 230.578 19.528C230.642 19.6987 230.674 19.9013 230.674 20.136C230.674 21.4587 229.416 22.12 226.898 22.12H225.522C224.797 22.12 224.253 22.0347 223.89 21.864C223.549 21.6933 223.325 21.4267 223.218 21.064C223.112 20.7013 223.058 20.1467 223.058 19.4V13.8C223.058 13.5867 222.994 13.4267 222.866 13.32C222.76 13.192 222.6 13.128 222.386 13.128H220.882C220.669 13.128 220.498 13.192 220.37 13.32C220.264 13.4267 220.21 13.5867 220.21 13.8V15.56C220.21 17.2453 219.912 18.8347 219.314 20.328C218.738 21.8213 217.565 23.0907 215.794 24.136C215.624 24.2427 215.474 24.3067 215.346 24.328C215.218 24.328 215.133 24.3067 215.09 24.264L215.058 24.168C215.058 24.0827 215.144 23.9013 215.314 23.624C216.018 22.536 216.466 21.352 216.658 20.072C216.872 18.7707 216.978 17.2667 216.978 15.56V13.16C216.978 12.4347 216.968 11.8907 216.946 11.528V11.464C216.946 11.08 217.085 10.888 217.362 10.888C217.49 10.888 217.597 10.9093 217.682 10.952L220.338 12.04C220.573 12.1467 220.84 12.2 221.138 12.2H222.226ZM207.442 15.432C207.229 15.432 207.058 15.496 206.93 15.624C206.824 15.7307 206.77 15.8907 206.77 16.104V22.6C206.77 23.0693 207.005 23.2827 207.474 23.24C207.858 23.2187 208.434 23.1653 209.202 23.08L210.386 22.952C210.813 22.9093 211.026 22.6747 211.026 22.248V16.104C211.026 15.8907 210.962 15.7307 210.834 15.624C210.728 15.496 210.568 15.432 210.354 15.432H207.442ZM207.41 17.064C207.24 16.68 207.208 16.456 207.314 16.392C207.336 16.3707 207.378 16.36 207.442 16.36C207.57 16.36 207.741 16.4347 207.954 16.584C208.914 17.16 209.608 17.7787 210.034 18.44C210.482 19.1013 210.706 19.7307 210.706 20.328C210.706 20.8827 210.546 21.352 210.226 21.736C209.928 22.12 209.576 22.312 209.17 22.312C208.85 22.312 208.562 22.184 208.306 21.928C208.114 21.736 208.018 21.5013 208.018 21.224C208.061 19.6667 207.858 18.28 207.41 17.064ZM224.53 32.68C224.402 32.8293 224.338 32.968 224.338 33.096C224.338 33.3093 224.456 33.48 224.69 33.608C226.226 34.5467 228.146 35.3573 230.45 36.04C230.856 36.168 231.048 36.2853 231.026 36.392C231.005 36.456 230.941 36.52 230.834 36.584C230.749 36.648 230.632 36.7013 230.482 36.744C229.416 37.1493 228.648 37.9387 228.178 39.112C228.05 39.4107 227.869 39.56 227.634 39.56C227.528 39.56 227.41 39.528 227.282 39.464C225.213 38.3333 223.581 37.1173 222.386 35.816C222.216 35.6453 222.056 35.56 221.906 35.56C221.757 35.56 221.597 35.624 221.426 35.752C219.25 37.4587 216.658 38.7813 213.65 39.72C213.266 39.848 213.042 39.848 212.978 39.72V39.656C212.978 39.528 213.138 39.368 213.458 39.176C216.061 37.7893 218.28 36.0187 220.114 33.864C220.242 33.6933 220.306 33.5227 220.306 33.352C220.306 33.2453 220.253 33.1067 220.146 32.936C219.016 31.1227 218.13 28.872 217.49 26.184C217.405 25.7787 217.16 25.576 216.754 25.576H216.594C216.466 25.576 216.253 25.6187 215.954 25.704C215.826 25.768 215.709 25.8 215.602 25.8C215.368 25.8 215.186 25.6827 215.058 25.448L214.994 25.32C214.93 25.192 214.898 25.064 214.898 24.936C214.898 24.6587 215.101 24.5307 215.506 24.552C216.21 24.616 217.298 24.6693 218.77 24.712H223.794C224.114 24.712 224.381 24.5947 224.594 24.36L225.138 23.752C225.266 23.624 225.448 23.432 225.682 23.176C225.938 22.8987 226.13 22.76 226.258 22.76C226.408 22.76 226.834 23.0693 227.538 23.688C228.242 24.2853 228.754 24.7973 229.074 25.224C229.181 25.3733 229.234 25.5013 229.234 25.608C229.234 25.7573 229.138 25.8853 228.946 25.992L228.658 26.088C228.274 26.152 228.029 26.3547 227.922 26.696C227.09 28.8507 225.96 30.8453 224.53 32.68ZM224.146 26.344C224.168 26.28 224.178 26.1947 224.178 26.088C224.178 25.7467 223.976 25.576 223.57 25.576H218.77C218.6 25.576 218.461 25.6187 218.354 25.704C218.248 25.7893 218.194 25.9067 218.194 26.056C218.194 26.0987 218.216 26.2053 218.258 26.376C219.005 28.104 220.018 29.6187 221.298 30.92C221.426 31.0693 221.576 31.144 221.746 31.144C221.938 31.144 222.098 31.0267 222.226 30.792C222.973 29.4267 223.613 27.944 224.146 26.344ZM207.698 30.056C207.698 28.712 207.645 27.6133 207.538 26.76C207.517 26.568 207.549 26.4187 207.634 26.312C207.741 26.184 207.88 26.12 208.05 26.12C208.093 26.12 208.2 26.1413 208.37 26.184C209.629 26.632 210.258 26.9627 210.258 27.176C210.258 27.24 210.205 27.304 210.098 27.368C209.864 27.5387 209.746 27.784 209.746 28.104V29.096L209.81 30.792C209.81 31.2827 209.832 31.9333 209.874 32.744V32.936C209.874 33.1707 209.789 33.3733 209.618 33.544C209.106 33.8853 208.616 34.056 208.146 34.056C207.933 34.056 207.773 33.992 207.666 33.864C207.581 33.736 207.538 33.5867 207.538 33.416C207.581 33.1387 207.634 32.4667 207.698 31.4V30.056ZM252.594 26.024C252.488 25.7253 252.381 25.576 252.274 25.576C252.125 25.576 251.997 25.7147 251.89 25.992C250.674 28.9147 248.872 31.56 246.482 33.928C244.114 36.2747 241.341 38.152 238.162 39.56C237.757 39.7307 237.533 39.7627 237.49 39.656V39.592C237.49 39.4853 237.65 39.336 237.97 39.144C240.125 37.7573 242.12 35.8693 243.954 33.48C245.789 31.0907 247.293 28.36 248.466 25.288C249.661 22.216 250.376 19.0267 250.61 15.72V14.44C250.61 14.2267 250.546 14.0667 250.418 13.96C250.312 13.832 250.152 13.768 249.938 13.768H248.178C247.005 13.7893 245.725 13.9067 244.338 14.12H244.146C243.848 14.12 243.634 13.9813 243.506 13.704L243.378 13.48C243.314 13.352 243.282 13.224 243.282 13.096C243.282 12.968 243.336 12.872 243.442 12.808C243.549 12.7227 243.698 12.6907 243.89 12.712C244.616 12.776 245.714 12.8293 247.186 12.872H249.266C249.629 12.872 249.906 12.7227 250.098 12.424L251.026 10.888C251.154 10.6533 251.325 10.536 251.538 10.536C251.709 10.536 251.848 10.5893 251.954 10.696L254.898 12.968C255.112 13.1387 255.218 13.3093 255.218 13.48C255.218 13.6293 255.122 13.768 254.93 13.896C254.397 14.216 253.48 14.4827 252.178 14.696C251.752 14.7387 251.538 14.9733 251.538 15.4V15.88C252.008 20.6373 253.405 24.648 255.73 27.912C258.077 31.176 261.405 33.7787 265.714 35.72C266.12 35.8693 266.301 36.008 266.258 36.136C266.237 36.2213 266.045 36.3173 265.682 36.424C264.424 36.7653 263.485 37.672 262.866 39.144C262.653 39.6133 262.418 39.752 262.162 39.56C260.2 38.2587 258.322 36.3813 256.53 33.928C254.738 31.4747 253.426 28.84 252.594 26.024ZM301.683 17.16C301.896 17.3307 302.003 17.512 302.003 17.704C302.003 17.832 301.939 17.928 301.811 17.992C301.683 18.056 301.512 18.088 301.299 18.088H296.659C296.445 18.088 296.275 18.152 296.147 18.28C296.04 18.3867 295.997 18.5467 296.019 18.76C296.104 22.0453 296.381 24.936 296.851 27.432C297.341 29.9067 298.12 31.944 299.187 33.544C299.315 33.8 299.432 33.928 299.539 33.928C299.624 33.928 299.752 33.7787 299.923 33.48C300.328 32.712 300.776 31.6773 301.267 30.376C301.437 29.992 301.565 29.8107 301.651 29.832C301.779 29.8747 301.811 30.0987 301.747 30.504L301.203 34.888V35.112C301.203 35.2827 301.235 35.496 301.299 35.752C301.704 36.776 301.907 37.5867 301.907 38.184C301.907 38.632 301.789 38.9307 301.555 39.08C301.213 39.336 300.808 39.464 300.339 39.464C299.699 39.464 299.037 39.2187 298.355 38.728C297.693 38.2587 297.181 37.7147 296.819 37.096C295.795 35.432 294.973 33.5653 294.355 31.496C293.757 29.4267 293.309 27.1227 293.011 24.584C292.968 24.1573 292.733 23.944 292.307 23.944H290.867C290.653 23.944 290.483 24.008 290.355 24.136C290.248 24.2427 290.195 24.4027 290.195 24.616V32.04C290.195 32.2533 290.259 32.424 290.387 32.552C290.515 32.6587 290.696 32.6907 290.931 32.648L293.331 32.136C293.437 32.1147 293.565 32.104 293.715 32.104C293.907 32.104 294.013 32.136 294.035 32.2V32.232C294.035 32.36 293.896 32.5093 293.619 32.68C291.507 34.0667 289.117 35.5173 286.451 37.032C286.152 37.2027 285.981 37.3413 285.939 37.448L285.843 37.64C285.757 37.768 285.64 37.832 285.491 37.832C285.384 37.832 285.277 37.7893 285.171 37.704C285.064 37.6187 284.989 37.5013 284.947 37.352L283.859 34.632C283.816 34.504 283.795 34.408 283.795 34.344C283.795 34.0453 283.976 33.8747 284.339 33.832C285.789 33.576 286.461 33.4587 286.355 33.48C286.76 33.416 286.963 33.1813 286.963 32.776V24.616C286.963 24.4027 286.899 24.2427 286.771 24.136C286.664 24.008 286.504 23.944 286.291 23.944H286.035C285.715 23.9653 285.405 24.0293 285.107 24.136C284.936 24.1787 284.819 24.2 284.755 24.2C284.52 24.2 284.339 24.072 284.211 23.816L284.115 23.624C284.051 23.496 284.019 23.368 284.019 23.24C284.019 23.112 284.072 23.016 284.179 22.952C284.285 22.8667 284.435 22.8347 284.627 22.856C285.245 22.92 286.184 22.9733 287.443 23.016H288.723C289.064 23.016 289.331 22.8667 289.523 22.568L290.419 21.192C290.547 20.9787 290.707 20.872 290.899 20.872C291.069 20.872 291.229 20.9467 291.379 21.096L291.923 21.608C292.093 21.7787 292.243 21.864 292.371 21.864C292.477 21.864 292.563 21.8107 292.627 21.704C292.712 21.5973 292.744 21.448 292.723 21.256C292.637 20.1467 292.584 19.3147 292.563 18.76C292.541 18.312 292.307 18.088 291.859 18.088H289.491C288.189 18.1093 286.781 18.2267 285.267 18.44H285.075C284.776 18.44 284.563 18.3013 284.435 18.024L284.211 17.608C284.061 17.288 283.933 17.128 283.827 17.128H283.699H276.531C275.592 17.1493 274.696 17.256 273.843 17.448C273.779 17.4693 273.704 17.48 273.619 17.48C273.341 17.48 273.128 17.3413 272.979 17.064L272.851 16.84C272.787 16.712 272.755 16.5947 272.755 16.488C272.755 16.168 272.968 16.0293 273.395 16.072C274.12 16.136 275.219 16.1893 276.691 16.232H279.507C279.848 16.232 280.115 16.0933 280.307 15.816L280.755 15.144C280.819 15.0587 280.925 14.9093 281.075 14.696C281.224 14.4827 281.341 14.3227 281.427 14.216C281.533 14.1093 281.629 14.056 281.715 14.056C281.885 14.056 282.291 14.3333 282.931 14.888C283.571 15.4213 284.029 15.88 284.307 16.264C284.477 16.4987 284.52 16.68 284.435 16.808L284.307 16.968C285.608 17.0747 286.877 17.1387 288.115 17.16L291.827 17.16C292.019 17.16 292.168 17.1067 292.275 17C292.403 16.8933 292.467 16.744 292.467 16.552C292.467 15.272 292.456 14.312 292.435 13.672L292.403 10.6C292.403 10.1307 292.659 9.91733 293.171 9.96C295.603 10.152 296.819 10.3867 296.819 10.664C296.819 10.728 296.733 10.824 296.563 10.952L296.435 11.048C296.157 11.2613 296.019 11.528 296.019 11.848C295.976 13.512 295.955 14.7707 295.955 15.624V16.488C295.955 16.936 296.168 17.16 296.595 17.16H296.723C297.064 17.16 297.341 17.032 297.555 16.776L298.355 15.752C298.653 15.3467 298.771 15.144 298.707 15.144L298.643 15.08C298.493 15.016 298.387 14.9307 298.323 14.824C298.259 14.696 298.195 14.536 298.131 14.344C297.939 13.512 297.544 12.68 296.947 11.848C296.755 11.592 296.659 11.4 296.659 11.272C296.659 11.1867 296.765 11.144 296.979 11.144C297.128 11.144 297.245 11.1547 297.331 11.176C298.568 11.3467 299.475 11.6773 300.051 12.168C300.648 12.6373 300.947 13.16 300.947 13.736C300.947 14.0347 300.861 14.312 300.691 14.568C300.541 14.824 300.339 15.016 300.083 15.144C299.848 15.2507 299.709 15.3253 299.667 15.368C299.624 15.4107 299.667 15.4853 299.795 15.592L301.683 17.16ZM279.443 13.096C278.141 13.1173 276.733 13.2347 275.219 13.448H275.027C274.728 13.448 274.515 13.3093 274.387 13.032L274.259 12.776C274.195 12.648 274.163 12.52 274.163 12.392C274.163 12.1147 274.365 11.9973 274.771 12.04C275.325 12.0827 276.157 12.1253 277.267 12.168H278.355C278.696 12.168 278.963 12.0293 279.155 11.752L279.603 11.08C279.667 10.9947 279.773 10.8453 279.923 10.632C280.072 10.4187 280.189 10.2587 280.275 10.152C280.381 10.0453 280.477 9.992 280.563 9.992C280.733 9.992 281.139 10.2693 281.779 10.824C282.44 11.3787 282.909 11.848 283.187 12.232C283.293 12.3813 283.347 12.4987 283.347 12.584C283.347 12.6907 283.304 12.7867 283.219 12.872C283.091 13.0213 282.877 13.096 282.579 13.096H279.443ZM279.347 21.16C278.045 21.1813 276.637 21.2987 275.123 21.512H274.931C274.632 21.512 274.419 21.3733 274.291 21.096L274.163 20.872C274.099 20.744 274.067 20.616 274.067 20.488C274.067 20.36 274.12 20.264 274.227 20.2C274.333 20.1147 274.483 20.0827 274.675 20.104C275.272 20.168 276.189 20.2213 277.427 20.264H278.707C279.048 20.264 279.315 20.1147 279.507 19.816L279.923 19.208C280.029 19.08 280.147 18.92 280.275 18.728C280.403 18.536 280.509 18.3973 280.595 18.312C280.68 18.2053 280.765 18.152 280.851 18.152C281.021 18.152 281.405 18.4187 282.003 18.952C282.621 19.464 283.069 19.912 283.347 20.296C283.453 20.4453 283.507 20.5733 283.507 20.68C283.507 20.7867 283.464 20.8827 283.379 20.968C283.229 21.096 283.016 21.16 282.739 21.16H279.347ZM274.931 25.576C274.632 25.576 274.419 25.4373 274.291 25.16L274.163 24.936C274.099 24.808 274.067 24.68 274.067 24.552C274.067 24.424 274.12 24.328 274.227 24.264C274.333 24.1787 274.483 24.1467 274.675 24.168C275.272 24.232 276.189 24.2853 277.427 24.328H278.707C279.048 24.328 279.315 24.1893 279.507 23.912L279.923 23.304C280.029 23.176 280.147 23.016 280.275 22.824C280.403 22.632 280.509 22.4933 280.595 22.408C280.68 22.3013 280.765 22.248 280.851 22.248C281.021 22.248 281.405 22.5147 282.003 23.048C282.621 23.56 283.069 24.008 283.347 24.392C283.453 24.4987 283.507 24.616 283.507 24.744C283.507 24.8507 283.443 24.9573 283.315 25.064C283.144 25.1707 282.952 25.224 282.739 25.224H279.347C278.045 25.2453 276.637 25.3627 275.123 25.576H274.931ZM283.507 29.832C283.208 29.96 283.059 30.1947 283.059 30.536V32.648C283.123 34.696 283.176 36.2747 283.219 37.384V37.544C283.219 37.8427 283.123 38.056 282.931 38.184C282.611 38.3973 282.205 38.5787 281.715 38.728C281.245 38.8987 280.808 38.984 280.403 38.984C280.125 38.984 279.933 38.8987 279.827 38.728C279.763 38.6427 279.731 38.5467 279.731 38.44C279.731 38.3547 279.752 38.2267 279.795 38.056C279.795 38.0773 279.816 37.9813 279.859 37.768C279.859 37.576 279.795 37.4267 279.667 37.32C279.56 37.2133 279.4 37.16 279.187 37.16H277.843C277.629 37.16 277.459 37.2133 277.331 37.32C277.224 37.448 277.171 37.6187 277.171 37.832V38.76C277.171 38.8667 277.032 39.0053 276.755 39.176C276.499 39.3467 276.157 39.496 275.731 39.624C275.325 39.752 274.92 39.816 274.515 39.816C274.301 39.816 274.131 39.752 274.003 39.624C273.896 39.496 273.843 39.3467 273.843 39.176C273.928 38.2373 273.992 37.0427 274.035 35.592V33.48C274.035 31.4107 273.939 29.5653 273.747 27.944V27.816C273.747 27.4747 273.885 27.304 274.163 27.304C274.291 27.304 274.397 27.3253 274.483 27.368L276.915 28.424C277.149 28.5307 277.416 28.584 277.715 28.584H279.059C279.4 28.584 279.677 28.456 279.891 28.2L280.243 27.752C280.349 27.6453 280.499 27.4747 280.691 27.24C280.883 27.0053 281.043 26.888 281.171 26.888C281.341 26.888 281.757 27.1333 282.419 27.624C283.08 28.1147 283.571 28.552 283.891 28.936C284.019 29.064 284.083 29.192 284.083 29.32C284.083 29.4267 284.019 29.5333 283.891 29.64L283.507 29.832ZM277.171 35.592C277.171 35.8053 277.224 35.976 277.331 36.104C277.459 36.2107 277.629 36.264 277.843 36.264H279.187C279.4 36.264 279.56 36.2107 279.667 36.104C279.795 35.976 279.859 35.8053 279.859 35.592V30.152C279.859 29.9387 279.795 29.7787 279.667 29.672C279.56 29.544 279.4 29.48 279.187 29.48H277.843C277.629 29.48 277.459 29.544 277.331 29.672C277.224 29.7787 277.171 29.9387 277.171 30.152V35.592Z" fill="#161614"/>
</svg>
