<svg width="1684" height="1192" viewBox="0 0 1684 1192" fill="none" xmlns="http://www.w3.org/2000/svg">
<rect width="1684" height="1192" fill="white"/>
<rect x="449" y="152" width="195" height="195" stroke="black" stroke-width="8"/>
<path d="M519.974 272.045V261.989L549.599 215.182H557.986V229.5H552.872L532.929 261.102V261.648H574.281V272.045H519.974ZM553.281 285V268.977L553.418 264.477V215.182H565.349V285H553.281Z" fill="black"/>
<rect x="666" y="152" width="195" height="195" stroke="black" stroke-width="8"/>
<path d="M712.268 285V275.864L736.506 252.102C738.824 249.761 740.756 247.682 742.302 245.864C743.847 244.045 745.006 242.284 745.779 240.58C746.552 238.875 746.938 237.057 746.938 235.125C746.938 232.92 746.438 231.034 745.438 229.466C744.438 227.875 743.063 226.648 741.313 225.784C739.563 224.92 737.574 224.489 735.347 224.489C733.052 224.489 731.04 224.966 729.313 225.92C727.586 226.852 726.245 228.182 725.29 229.909C724.359 231.636 723.893 233.693 723.893 236.08H711.859C711.859 231.648 712.87 227.795 714.893 224.523C716.915 221.25 719.699 218.716 723.245 216.92C726.813 215.125 730.904 214.227 735.518 214.227C740.199 214.227 744.313 215.102 747.859 216.852C751.404 218.602 754.154 221 756.109 224.045C758.086 227.091 759.074 230.568 759.074 234.477C759.074 237.091 758.574 239.659 757.574 242.182C756.574 244.705 754.813 247.5 752.29 250.568C749.79 253.636 746.279 257.352 741.756 261.716L729.722 273.955V274.432H760.131V285H712.268ZM789.991 285.955C784.923 285.955 780.423 285.102 776.491 283.398C772.582 281.693 769.514 279.364 767.286 276.409C765.082 273.432 763.991 270.057 764.014 266.284C763.991 263.352 764.627 260.659 765.923 258.205C767.218 255.75 768.968 253.705 771.173 252.068C773.4 250.409 775.877 249.352 778.604 248.898V248.42C775.014 247.625 772.104 245.795 769.877 242.932C767.673 240.045 766.582 236.716 766.604 232.943C766.582 229.352 767.582 226.148 769.604 223.33C771.627 220.511 774.4 218.295 777.923 216.682C781.445 215.045 785.468 214.227 789.991 214.227C794.468 214.227 798.457 215.045 801.957 216.682C805.479 218.295 808.252 220.511 810.275 223.33C812.32 226.148 813.343 229.352 813.343 232.943C813.343 236.716 812.218 240.045 809.968 242.932C807.741 245.795 804.866 247.625 801.343 248.42V248.898C804.07 249.352 806.525 250.409 808.707 252.068C810.911 253.705 812.661 255.75 813.957 258.205C815.275 260.659 815.934 263.352 815.934 266.284C815.934 270.057 814.82 273.432 812.593 276.409C810.366 279.364 807.298 281.693 803.389 283.398C799.502 285.102 795.036 285.955 789.991 285.955ZM789.991 276.205C792.604 276.205 794.877 275.761 796.809 274.875C798.741 273.966 800.241 272.693 801.309 271.057C802.377 269.42 802.923 267.534 802.945 265.398C802.923 263.17 802.343 261.205 801.207 259.5C800.093 257.773 798.559 256.42 796.604 255.443C794.673 254.466 792.468 253.977 789.991 253.977C787.491 253.977 785.264 254.466 783.309 255.443C781.354 256.42 779.809 257.773 778.673 259.5C777.559 261.205 777.014 263.17 777.036 265.398C777.014 267.534 777.536 269.42 778.604 271.057C779.673 272.67 781.173 273.932 783.104 274.841C785.059 275.75 787.354 276.205 789.991 276.205ZM789.991 244.398C792.127 244.398 794.014 243.966 795.65 243.102C797.309 242.239 798.616 241.034 799.57 239.489C800.525 237.943 801.014 236.159 801.036 234.136C801.014 232.136 800.536 230.386 799.604 228.886C798.673 227.364 797.377 226.193 795.718 225.375C794.059 224.534 792.15 224.114 789.991 224.114C787.786 224.114 785.843 224.534 784.161 225.375C782.502 226.193 781.207 227.364 780.275 228.886C779.366 230.386 778.923 232.136 778.945 234.136C778.923 236.159 779.377 237.943 780.309 239.489C781.264 241.011 782.57 242.216 784.229 243.102C785.911 243.966 787.832 244.398 789.991 244.398Z" fill="black"/>
<path d="M930.153 247.592V235.304H974.825V247.592H930.153ZM930.153 270.632V258.344H974.825V270.632H930.153Z" fill="black"/>
<path d="M1111.11 307V213.909H1174.65V232.182H1133.61V251.273H1170.61V269.591H1133.61V307H1111.11Z" fill="black"/>
<rect x="449" y="499" width="195" height="195" stroke="black" stroke-width="8"/>
<path d="M492.209 619.045V608.989L521.834 562.182H530.221V576.5H525.107L505.164 608.102V608.648H546.516V619.045H492.209ZM525.516 632V615.977L525.653 611.477V562.182H537.584V632H525.516ZM576.256 632.955C572.916 632.932 569.654 632.352 566.472 631.216C563.291 630.057 560.427 628.182 557.881 625.591C555.336 622.977 553.313 619.511 551.813 615.193C550.313 610.852 549.575 605.477 549.597 599.068C549.597 593.091 550.234 587.761 551.506 583.08C552.779 578.398 554.609 574.443 556.995 571.216C559.381 567.966 562.256 565.489 565.62 563.784C569.006 562.08 572.791 561.227 576.972 561.227C581.359 561.227 585.245 562.091 588.631 563.818C592.041 565.545 594.791 567.909 596.881 570.909C598.972 573.886 600.268 577.25 600.768 581H588.325C587.688 578.318 586.381 576.182 584.404 574.591C582.45 572.977 579.972 572.17 576.972 572.17C572.131 572.17 568.404 574.273 565.791 578.477C563.2 582.682 561.893 588.455 561.87 595.795H562.347C563.461 593.795 564.904 592.08 566.677 590.648C568.45 589.216 570.45 588.114 572.677 587.341C574.927 586.545 577.302 586.148 579.802 586.148C583.893 586.148 587.563 587.125 590.813 589.08C594.086 591.034 596.677 593.727 598.586 597.159C600.495 600.568 601.438 604.477 601.416 608.886C601.438 613.477 600.393 617.602 598.279 621.261C596.166 624.898 593.222 627.761 589.45 629.852C585.677 631.943 581.279 632.977 576.256 632.955ZM576.188 622.727C578.666 622.727 580.881 622.125 582.836 620.92C584.791 619.716 586.336 618.091 587.472 616.045C588.609 614 589.166 611.705 589.143 609.159C589.166 606.659 588.62 604.398 587.506 602.375C586.416 600.352 584.904 598.75 582.972 597.568C581.041 596.386 578.836 595.795 576.359 595.795C574.518 595.795 572.802 596.148 571.211 596.852C569.62 597.557 568.234 598.534 567.052 599.784C565.87 601.011 564.938 602.443 564.256 604.08C563.597 605.693 563.256 607.42 563.234 609.261C563.256 611.693 563.825 613.932 564.938 615.977C566.052 618.023 567.586 619.659 569.541 620.886C571.495 622.114 573.711 622.727 576.188 622.727Z" fill="black"/>
<rect x="666" y="499" width="195" height="195" stroke="black" stroke-width="8"/>
<path d="M739.392 632V622.864L763.631 599.102C765.949 596.761 767.881 594.682 769.426 592.864C770.972 591.045 772.131 589.284 772.903 587.58C773.676 585.875 774.062 584.057 774.062 582.125C774.062 579.92 773.562 578.034 772.562 576.466C771.562 574.875 770.188 573.648 768.438 572.784C766.688 571.92 764.699 571.489 762.472 571.489C760.176 571.489 758.165 571.966 756.438 572.92C754.71 573.852 753.369 575.182 752.415 576.909C751.483 578.636 751.017 580.693 751.017 583.08H738.983C738.983 578.648 739.994 574.795 742.017 571.523C744.04 568.25 746.824 565.716 750.369 563.92C753.938 562.125 758.028 561.227 762.642 561.227C767.324 561.227 771.438 562.102 774.983 563.852C778.528 565.602 781.278 568 783.233 571.045C785.21 574.091 786.199 577.568 786.199 581.477C786.199 584.091 785.699 586.659 784.699 589.182C783.699 591.705 781.938 594.5 779.415 597.568C776.915 600.636 773.403 604.352 768.881 608.716L756.847 620.955V621.432H787.256V632H739.392Z" fill="black"/>
<path d="M930.153 594.592V582.304H974.825V594.592H930.153ZM930.153 617.632V605.344H974.825V617.632H930.153Z" fill="black"/>
<path d="M1095.78 550.909H1120.92L1140.6 589.864H1141.42L1161.1 550.909H1186.24L1152.19 612.909V644H1129.83V612.909L1095.78 550.909Z" fill="black"/>
<rect x="449" y="846" width="195" height="195" stroke="black" stroke-width="8"/>
<path d="M548.148 979.955C544.807 979.932 541.545 979.352 538.364 978.216C535.182 977.057 532.318 975.182 529.773 972.591C527.227 969.977 525.205 966.511 523.705 962.193C522.205 957.852 521.466 952.477 521.489 946.068C521.489 940.091 522.125 934.761 523.398 930.08C524.67 925.398 526.5 921.443 528.886 918.216C531.273 914.966 534.148 912.489 537.511 910.784C540.898 909.08 544.682 908.227 548.864 908.227C553.25 908.227 557.136 909.091 560.523 910.818C563.932 912.545 566.682 914.909 568.773 917.909C570.864 920.886 572.159 924.25 572.659 928H560.216C559.58 925.318 558.273 923.182 556.295 921.591C554.341 919.977 551.864 919.17 548.864 919.17C544.023 919.17 540.295 921.273 537.682 925.477C535.091 929.682 533.784 935.455 533.761 942.795H534.239C535.352 940.795 536.795 939.08 538.568 937.648C540.341 936.216 542.341 935.114 544.568 934.341C546.818 933.545 549.193 933.148 551.693 933.148C555.784 933.148 559.455 934.125 562.705 936.08C565.977 938.034 568.568 940.727 570.477 944.159C572.386 947.568 573.33 951.477 573.307 955.886C573.33 960.477 572.284 964.602 570.17 968.261C568.057 971.898 565.114 974.761 561.341 976.852C557.568 978.943 553.17 979.977 548.148 979.955ZM548.08 969.727C550.557 969.727 552.773 969.125 554.727 967.92C556.682 966.716 558.227 965.091 559.364 963.045C560.5 961 561.057 958.705 561.034 956.159C561.057 953.659 560.511 951.398 559.398 949.375C558.307 947.352 556.795 945.75 554.864 944.568C552.932 943.386 550.727 942.795 548.25 942.795C546.409 942.795 544.693 943.148 543.102 943.852C541.511 944.557 540.125 945.534 538.943 946.784C537.761 948.011 536.83 949.443 536.148 951.08C535.489 952.693 535.148 954.42 535.125 956.261C535.148 958.693 535.716 960.932 536.83 962.977C537.943 965.023 539.477 966.659 541.432 967.886C543.386 969.114 545.602 969.727 548.08 969.727Z" fill="black"/>
<rect x="666" y="846" width="195" height="195" stroke="black" stroke-width="8"/>
<path d="M744.089 979L773.783 920.227V919.75H739.317V909.182H786.874V919.989L757.214 979H744.089Z" fill="black"/>
<path d="M930.153 941.592V929.304H974.825V941.592H930.153ZM930.153 964.632V952.344H974.825V964.632H930.153Z" fill="black"/>
<rect width="191" height="191" transform="translate(1044 846)" fill="#FF3636"/>
<path d="M1132.96 960.024C1132.28 956.525 1132.41 953.368 1133.34 950.552C1134.37 947.736 1135.86 945.219 1137.82 943C1139.87 940.696 1142.09 938.605 1144.48 936.728C1146.95 934.765 1149.3 932.845 1151.52 930.968C1153.74 929.091 1155.57 927.171 1157.02 925.208C1158.47 923.16 1159.2 920.941 1159.2 918.552C1159.2 915.565 1158.47 912.92 1157.02 910.616C1155.57 908.312 1153.44 906.52 1150.62 905.24C1147.81 903.875 1144.18 903.192 1139.74 903.192C1135.39 903.192 1131.17 904.173 1127.07 906.136C1123.06 908.013 1119.22 910.915 1115.55 914.84L1108.64 908.44C1112.91 903.917 1117.64 900.333 1122.85 897.688C1128.05 894.957 1134.11 893.592 1141.02 893.592C1147.08 893.592 1152.29 894.573 1156.64 896.536C1161.08 898.499 1164.49 901.272 1166.88 904.856C1169.35 908.355 1170.59 912.579 1170.59 917.528C1170.59 920.771 1169.87 923.629 1168.42 926.104C1166.97 928.579 1165.09 930.84 1162.78 932.888C1160.57 934.936 1158.22 936.941 1155.74 938.904C1153.27 940.781 1150.97 942.744 1148.83 944.792C1146.78 946.84 1145.21 949.101 1144.1 951.576C1143.07 954.051 1142.86 956.867 1143.46 960.024H1132.96ZM1138.46 991.64C1136.16 991.64 1134.2 990.872 1132.58 989.336C1130.95 987.8 1130.14 985.752 1130.14 983.192C1130.14 980.632 1130.95 978.584 1132.58 977.048C1134.2 975.427 1136.16 974.616 1138.46 974.616C1140.68 974.616 1142.6 975.427 1144.22 977.048C1145.85 978.584 1146.66 980.632 1146.66 983.192C1146.66 985.752 1145.85 987.8 1144.22 989.336C1142.6 990.872 1140.68 991.64 1138.46 991.64Z" fill="white"/>
</svg>
