<svg width="1684" height="1192" viewBox="0 0 1684 1192" fill="none" xmlns="http://www.w3.org/2000/svg">
<rect width="1684" height="1192" fill="white"/>
<path d="M753 721H555V1045H753V883V721Z" stroke="black" stroke-width="30" stroke-linecap="round" stroke-linejoin="round"/>
<path d="M392 1045V883V721H194V883" stroke="black" stroke-width="30" stroke-linecap="round" stroke-linejoin="round"/>
<path d="M194 173H392V335M194 497H392V335M392 335H194" stroke="black" stroke-width="30" stroke-linecap="round" stroke-linejoin="round"/>
<path d="M753 497V335V173H555V335" stroke="black" stroke-width="30" stroke-linecap="round" stroke-linejoin="round"/>
<path d="M922.853 324.5V300.5H1010.1V324.5H922.853ZM922.853 369.5V345.5H1010.1V369.5H922.853Z" fill="black"/>
<path d="M922.853 889.5V865.5H1010.1V889.5H922.853ZM922.853 934.5V910.5H1010.1V934.5H922.853Z" fill="black"/>
<path d="M1219.5 212.5L1249 221C1245.67 228.667 1241.67 236.417 1237 244.25C1232.33 252.083 1227.42 259.417 1222.25 266.25C1217.08 273.083 1211.92 279.083 1206.75 284.25C1204.92 282.417 1202.5 280.25 1199.5 277.75C1196.67 275.083 1193.75 272.5 1190.75 270C1187.92 267.5 1185.33 265.5 1183 264C1190.33 257.667 1197.25 249.917 1203.75 240.75C1210.25 231.417 1215.5 222 1219.5 212.5ZM1257.5 224.5L1280.25 210.75C1284.58 215.25 1288.92 220.25 1293.25 225.75C1297.75 231.083 1301.83 236.417 1305.5 241.75C1309.33 246.917 1312.33 251.667 1314.5 256L1290 271.5C1288.17 267.167 1285.42 262.25 1281.75 256.75C1278.25 251.25 1274.33 245.667 1270 240C1265.83 234.333 1261.67 229.167 1257.5 224.5ZM1208 337.5H1235.5V440.75H1208V337.5ZM1222 337.5H1297V426.5H1222V399.75H1269.25V364.25H1222V337.5ZM1330.25 250.75H1402.5V278H1330.25V250.75ZM1360.5 261H1375V306.5C1375 311.667 1375.42 317.833 1376.25 325C1377.25 332.167 1378.83 339.833 1381 348C1383.33 356.167 1386.5 364.417 1390.5 372.75C1394.67 381.083 1399.75 389.167 1405.75 397C1411.75 404.667 1419 411.5 1427.5 417.5C1425.67 419.5 1423.58 422.083 1421.25 425.25C1419.08 428.583 1416.83 431.917 1414.5 435.25C1412.33 438.583 1410.5 441.5 1409 444C1401.5 438.667 1394.83 432.167 1389 424.5C1383.17 417 1378.25 409.167 1374.25 401C1370.42 392.667 1367.33 384.75 1365 377.25C1362.67 369.583 1361.08 363.083 1360.25 357.75C1359.42 363.25 1357.67 369.75 1355 377.25C1352.5 384.75 1349 392.583 1344.5 400.75C1340 408.917 1334.5 416.75 1328 424.25C1321.5 431.75 1313.92 438.333 1305.25 444C1304.08 441.667 1302.42 438.833 1300.25 435.5C1298.25 432.333 1296.17 429.167 1294 426C1291.83 423 1289.92 420.583 1288.25 418.75C1297.75 412.75 1305.83 405.833 1312.5 398C1319.17 390.167 1324.58 382.083 1328.75 373.75C1333.08 365.25 1336.5 356.833 1339 348.5C1341.5 340.167 1343.25 332.417 1344.25 325.25C1345.25 317.917 1345.75 311.583 1345.75 306.25V261H1360.5ZM1325.5 208.25L1356.25 213C1354.08 227.167 1351.25 240.917 1347.75 254.25C1344.42 267.417 1340.42 279.667 1335.75 291C1331.25 302.333 1326.08 312.25 1320.25 320.75C1318.42 319.083 1315.83 317.167 1312.5 315C1309.17 312.833 1305.75 310.75 1302.25 308.75C1298.92 306.583 1296 304.833 1293.5 303.5C1299.33 296.333 1304.25 287.75 1308.25 277.75C1312.42 267.583 1315.92 256.583 1318.75 244.75C1321.75 232.917 1324 220.75 1325.5 208.25ZM1395 250.75H1399L1403.5 249.75L1423.5 254.75C1422.17 262.75 1420.75 270.917 1419.25 279.25C1417.75 287.583 1416.17 295.583 1414.5 303.25C1412.83 310.917 1411.17 317.667 1409.5 323.5L1386 316.75C1387.17 311.417 1388.25 305.333 1389.25 298.5C1390.42 291.5 1391.5 284.25 1392.5 276.75C1393.5 269.083 1394.33 261.833 1395 255V250.75ZM1239 264.75H1256.75V270.75H1266.25V279.5C1261.92 287 1256.75 295.25 1250.75 304.25C1244.92 313.083 1238 322.083 1230 331.25C1222.17 340.25 1213 349.083 1202.5 357.75C1201.17 355.417 1199.33 352.917 1197 350.25C1194.67 347.417 1192.25 344.667 1189.75 342C1187.25 339.333 1184.92 337.25 1182.75 335.75C1191.92 328.917 1200.08 321.5 1207.25 313.5C1214.42 305.333 1220.67 297.083 1226 288.75C1231.33 280.417 1235.67 272.417 1239 264.75ZM1243.5 264.75H1266C1272.17 270.417 1278.42 276.75 1284.75 283.75C1291.25 290.583 1297.17 297.5 1302.5 304.5C1308 311.5 1312.17 318.083 1315 324.25L1292.75 347.25C1290.25 341.25 1286.58 334.5 1281.75 327C1277.08 319.5 1271.75 312.167 1265.75 305C1259.92 297.667 1254.08 291.417 1248.25 286.25H1243.5V264.75Z" fill="black"/>
<rect width="253" height="253" transform="translate(1177 778)" fill="#FF3636"/>
<path d="M1294.38 928.65C1293.44 923.867 1293.62 919.55 1294.9 915.7C1296.3 911.85 1298.34 908.408 1301.03 905.375C1303.83 902.225 1306.86 899.367 1310.13 896.8C1313.51 894.117 1316.72 891.492 1319.75 888.925C1322.78 886.358 1325.29 883.733 1327.28 881.05C1329.26 878.25 1330.25 875.217 1330.25 871.95C1330.25 867.867 1329.26 864.25 1327.28 861.1C1325.29 857.95 1322.38 855.5 1318.53 853.75C1314.68 851.883 1309.72 850.95 1303.65 850.95C1297.7 850.95 1291.93 852.292 1286.33 854.975C1280.84 857.542 1275.59 861.508 1270.58 866.875L1261.13 858.125C1266.96 851.942 1273.43 847.042 1280.55 843.425C1287.67 839.692 1295.95 837.825 1305.4 837.825C1313.68 837.825 1320.8 839.167 1326.75 841.85C1332.82 844.533 1337.48 848.325 1340.75 853.225C1344.13 858.008 1345.83 863.783 1345.83 870.55C1345.83 874.983 1344.83 878.892 1342.85 882.275C1340.87 885.658 1338.3 888.75 1335.15 891.55C1332.12 894.35 1328.91 897.092 1325.53 899.775C1322.14 902.342 1318.99 905.025 1316.08 907.825C1313.28 910.625 1311.12 913.717 1309.6 917.1C1308.2 920.483 1307.91 924.333 1308.73 928.65H1294.38ZM1301.9 971.875C1298.75 971.875 1296.07 970.825 1293.85 968.725C1291.63 966.625 1290.53 963.825 1290.53 960.325C1290.53 956.825 1291.63 954.025 1293.85 951.925C1296.07 949.708 1298.75 948.6 1301.9 948.6C1304.93 948.6 1307.56 949.708 1309.78 951.925C1311.99 954.025 1313.1 956.825 1313.1 960.325C1313.1 963.825 1311.99 966.625 1309.78 968.725C1307.56 970.825 1304.93 971.875 1301.9 971.875Z" fill="white"/>
</svg>
