<svg width="1684" height="1192" viewBox="0 0 1684 1192" fill="none" xmlns="http://www.w3.org/2000/svg">
<rect width="1684" height="1192" fill="white"/>
<path d="M530.013 285.608C533.469 286.056 537.341 286.376 541.629 286.568C545.981 286.76 550.557 286.856 555.357 286.856C558.429 286.856 561.501 286.792 564.573 286.664C567.709 286.536 570.685 286.376 573.501 286.184C576.381 285.928 578.973 285.704 581.277 285.512V293.384C579.101 293.512 576.573 293.672 573.693 293.864C570.813 294.056 567.773 294.216 564.573 294.344C561.437 294.472 558.365 294.536 555.357 294.536C550.557 294.536 546.077 294.44 541.917 294.248C537.757 293.992 533.789 293.736 530.013 293.48V285.608ZM533.853 324.296C533.213 326.216 532.701 328.072 532.317 329.864C531.997 331.656 531.837 333.448 531.837 335.24C531.837 338.888 533.725 341.864 537.501 344.168C541.277 346.472 547.005 347.624 554.685 347.624C559.101 347.624 563.357 347.464 567.453 347.144C571.549 346.824 575.293 346.376 578.685 345.8C582.141 345.224 585.085 344.552 587.517 343.784L587.613 352.04C585.309 352.68 582.461 353.256 579.069 353.768C575.741 354.28 572.029 354.664 567.933 354.92C563.837 355.24 559.485 355.4 554.877 355.4C548.413 355.4 542.877 354.696 538.269 353.288C533.661 351.88 530.141 349.8 527.709 347.048C525.277 344.296 524.061 340.904 524.061 336.872C524.061 334.376 524.285 332.008 524.733 329.768C525.181 327.528 525.629 325.448 526.077 323.528L533.853 324.296ZM657.597 287.432C656.957 292.424 656.125 297.64 655.101 303.08C654.141 308.52 652.893 313.8 651.357 318.92C649.437 325.512 647.293 331.016 644.925 335.432C642.621 339.848 640.125 343.176 637.437 345.416C634.749 347.656 631.933 348.776 628.989 348.776C626.173 348.776 623.453 347.752 620.829 345.704C618.205 343.656 616.061 340.712 614.397 336.872C612.733 332.968 611.901 328.392 611.901 323.144C611.901 317.896 612.957 312.936 615.069 308.264C617.245 303.592 620.221 299.464 623.997 295.88C627.837 292.232 632.317 289.352 637.437 287.24C642.557 285.128 648.029 284.072 653.853 284.072C659.485 284.072 664.541 285 669.021 286.856C673.565 288.712 677.437 291.272 680.637 294.536C683.837 297.736 686.301 301.48 688.029 305.768C689.757 309.992 690.621 314.536 690.621 319.4C690.621 326.12 689.181 332.04 686.301 337.16C683.485 342.28 679.389 346.44 674.013 349.64C668.701 352.84 662.237 354.952 654.621 355.976L650.109 348.872C651.645 348.68 653.117 348.488 654.525 348.296C655.933 348.104 657.213 347.88 658.365 347.624C661.437 346.92 664.413 345.832 667.293 344.36C670.237 342.824 672.861 340.904 675.165 338.6C677.469 336.232 679.293 333.448 680.637 330.248C682.045 326.984 682.749 323.272 682.749 319.112C682.749 315.208 682.109 311.592 680.829 308.264C679.549 304.872 677.661 301.896 675.165 299.336C672.669 296.776 669.629 294.76 666.045 293.288C662.461 291.816 658.365 291.08 653.757 291.08C648.509 291.08 643.741 292.04 639.453 293.96C635.229 295.88 631.613 298.408 628.605 301.544C625.661 304.616 623.389 308.008 621.789 311.72C620.189 315.368 619.389 318.952 619.389 322.472C619.389 326.504 619.901 329.832 620.925 332.456C622.013 335.016 623.293 336.904 624.765 338.12C626.301 339.336 627.805 339.944 629.277 339.944C630.813 339.944 632.381 339.208 633.981 337.736C635.581 336.2 637.213 333.768 638.877 330.44C640.541 327.048 642.173 322.664 643.773 317.288C645.181 312.68 646.365 307.784 647.325 302.6C648.349 297.416 649.085 292.328 649.533 287.336L657.597 287.432ZM772.413 277.16C773.245 278.312 774.141 279.688 775.101 281.288C776.061 282.824 776.989 284.392 777.885 285.992C778.845 287.592 779.645 289.032 780.285 290.312L775.101 292.616C774.141 290.696 772.925 288.456 771.453 285.896C769.981 283.336 768.605 281.16 767.325 279.368L772.413 277.16ZM782.973 273.32C783.869 274.536 784.797 275.944 785.757 277.544C786.781 279.08 787.773 280.648 788.733 282.248C789.693 283.784 790.461 285.16 791.037 286.376L785.853 288.68C784.829 286.632 783.581 284.392 782.109 281.96C780.701 279.464 779.293 277.32 777.885 275.528L782.973 273.32ZM737.661 280.712C737.213 281.8 736.765 282.952 736.317 284.168C735.933 285.384 735.549 286.472 735.165 287.432C734.717 288.904 734.141 290.504 733.437 292.232C732.797 293.96 732.093 295.752 731.325 297.608C730.557 299.4 729.725 301.192 728.829 302.984C727.613 305.416 726.045 308.04 724.125 310.856C722.269 313.672 720.285 316.36 718.173 318.92C716.061 321.416 714.013 323.496 712.029 325.16L704.445 320.648C706.173 319.368 707.869 317.864 709.533 316.136C711.197 314.408 712.765 312.584 714.237 310.664C715.773 308.68 717.149 306.792 718.365 305C719.581 303.144 720.637 301.48 721.533 300.008C722.813 297.576 723.901 295.208 724.797 292.904C725.693 290.536 726.397 288.424 726.909 286.568C727.293 285.288 727.613 284.008 727.869 282.728C728.125 281.448 728.285 280.168 728.349 278.888L737.661 280.712ZM725.565 297.128C726.525 297.128 728.061 297.128 730.173 297.128C732.349 297.128 734.909 297.128 737.853 297.128C740.797 297.128 743.901 297.128 747.165 297.128C750.493 297.128 753.789 297.128 757.053 297.128C760.317 297.128 763.325 297.128 766.077 297.128C768.893 297.128 771.261 297.128 773.181 297.128C775.101 297.128 776.349 297.128 776.925 297.128C778.077 297.128 779.485 297.096 781.149 297.032C782.877 296.968 784.445 296.84 785.853 296.648V304.904C784.317 304.776 782.717 304.712 781.053 304.712C779.389 304.648 778.013 304.616 776.925 304.616C776.221 304.616 774.621 304.616 772.125 304.616C769.693 304.616 766.717 304.616 763.197 304.616C759.677 304.616 755.901 304.616 751.869 304.616C747.901 304.616 744.061 304.616 740.349 304.616C736.701 304.616 733.469 304.616 730.653 304.616C727.837 304.616 725.821 304.616 724.605 304.616L725.565 297.128ZM760.797 301.256C760.605 308.616 759.773 315.272 758.301 321.224C756.893 327.112 754.941 332.36 752.445 336.968C749.949 341.576 746.941 345.672 743.421 349.256C739.965 352.776 736.093 355.912 731.805 358.664L723.645 353.096C725.053 352.584 726.429 351.944 727.773 351.176C729.181 350.344 730.397 349.512 731.421 348.68C733.917 346.824 736.381 344.552 738.813 341.864C741.309 339.176 743.581 335.944 745.629 332.168C747.677 328.328 749.341 323.88 750.621 318.824C751.901 313.768 752.605 307.88 752.733 301.16L760.797 301.256ZM805.245 311.432C806.205 311.496 807.389 311.592 808.797 311.72C810.205 311.784 811.741 311.848 813.405 311.912C815.133 311.912 816.861 311.912 818.589 311.912C819.613 311.912 821.181 311.912 823.293 311.912C825.469 311.912 827.997 311.912 830.877 311.912C833.757 311.912 836.797 311.912 839.997 311.912C843.261 311.912 846.493 311.912 849.693 311.912C852.957 311.912 856.029 311.912 858.909 311.912C861.853 311.912 864.381 311.912 866.493 311.912C868.605 311.912 870.173 311.912 871.197 311.912C873.629 311.912 875.709 311.848 877.437 311.72C879.165 311.592 880.541 311.496 881.565 311.432V320.84C880.605 320.776 879.165 320.68 877.245 320.552C875.389 320.424 873.405 320.36 871.293 320.36C870.269 320.36 868.669 320.36 866.493 320.36C864.317 320.36 861.789 320.36 858.909 320.36C856.093 320.36 853.053 320.36 849.789 320.36C846.525 320.36 843.261 320.36 839.997 320.36C836.797 320.36 833.757 320.36 830.877 320.36C828.061 320.36 825.565 320.36 823.389 320.36C821.213 320.36 819.613 320.36 818.589 320.36C815.965 320.36 813.469 320.424 811.101 320.552C808.733 320.616 806.781 320.712 805.245 320.84V311.432ZM938.659 281.384C938.211 282.6 937.699 283.88 937.123 285.224C936.611 286.568 936.035 288.264 935.395 290.312C934.819 291.912 934.083 294.152 933.187 297.032C932.291 299.912 931.267 303.112 930.115 306.632C929.027 310.088 927.843 313.672 926.563 317.384C925.347 321.096 924.131 324.712 922.915 328.232C921.699 331.752 920.579 334.92 919.555 337.736C918.595 340.488 917.763 342.696 917.059 344.36L908.323 344.648C909.155 342.728 910.115 340.296 911.203 337.352C912.291 334.408 913.475 331.112 914.755 327.464C916.035 323.816 917.283 320.104 918.499 316.328C919.779 312.488 920.995 308.776 922.147 305.192C923.299 301.608 924.291 298.376 925.123 295.496C926.019 292.616 926.723 290.344 927.235 288.68C927.811 286.44 928.227 284.68 928.483 283.4C928.739 282.056 928.931 280.744 929.059 279.464L938.659 281.384ZM956.899 313.544C958.627 316.04 960.483 318.984 962.467 322.376C964.515 325.768 966.531 329.352 968.515 333.128C970.563 336.84 972.419 340.392 974.083 343.784C975.811 347.176 977.187 350.12 978.211 352.616L970.147 356.264C969.187 353.64 967.907 350.568 966.307 347.048C964.707 343.464 962.947 339.784 961.027 336.008C959.171 332.232 957.251 328.648 955.267 325.256C953.283 321.864 951.427 319.048 949.699 316.808L956.899 313.544ZM904.579 342.344C906.883 342.216 909.667 342.024 912.931 341.768C916.259 341.448 919.843 341.128 923.683 340.808C927.523 340.424 931.427 340.008 935.395 339.56C939.427 339.112 943.331 338.696 947.107 338.312C950.883 337.864 954.339 337.448 957.475 337.064C960.611 336.616 963.203 336.264 965.251 336.008L967.363 343.4C965.187 343.72 962.435 344.072 959.107 344.456C955.779 344.84 952.163 345.256 948.259 345.704C944.419 346.088 940.419 346.536 936.259 347.048C932.163 347.496 928.163 347.944 924.259 348.392C920.355 348.84 916.739 349.224 913.411 349.544C910.083 349.864 907.299 350.12 905.059 350.312C903.843 350.44 902.563 350.6 901.219 350.792C899.875 350.984 898.499 351.176 897.091 351.368L895.651 342.44C897.123 342.504 898.627 342.536 900.163 342.536C901.763 342.472 903.235 342.408 904.579 342.344ZM1022.85 296.264C1025.6 296.52 1028.29 296.712 1030.91 296.84C1033.54 296.968 1036.29 297.032 1039.17 297.032C1044.93 297.032 1050.66 296.808 1056.35 296.36C1062.05 295.912 1067.33 295.208 1072.19 294.248V301.64C1067.07 302.472 1061.67 303.08 1055.97 303.464C1050.34 303.848 1044.67 304.072 1038.98 304.136C1036.23 304.136 1033.54 304.072 1030.91 303.944C1028.35 303.816 1025.67 303.656 1022.85 303.464V296.264ZM1056.45 279.08C1056.32 280.04 1056.19 281 1056.07 281.96C1056 282.92 1055.94 283.88 1055.87 284.84C1055.81 285.992 1055.75 287.464 1055.68 289.256C1055.62 291.048 1055.59 292.968 1055.59 295.016C1055.59 297 1055.59 298.952 1055.59 300.872C1055.59 304.52 1055.65 308.168 1055.78 311.816C1055.91 315.464 1056.07 319.016 1056.26 322.472C1056.45 325.928 1056.61 329.192 1056.74 332.264C1056.93 335.272 1057.03 338.024 1057.03 340.52C1057.03 342.44 1056.74 344.328 1056.16 346.184C1055.65 348.04 1054.75 349.704 1053.47 351.176C1052.26 352.648 1050.56 353.8 1048.39 354.632C1046.27 355.528 1043.62 355.976 1040.42 355.976C1033.95 355.976 1028.99 354.76 1025.54 352.328C1022.15 349.896 1020.45 346.536 1020.45 342.248C1020.45 339.56 1021.22 337.128 1022.75 334.952C1024.35 332.712 1026.59 330.952 1029.47 329.672C1032.42 328.392 1036 327.752 1040.23 327.752C1044.32 327.752 1048.07 328.232 1051.46 329.192C1054.91 330.088 1058.08 331.304 1060.96 332.84C1063.91 334.312 1066.59 335.976 1069.03 337.832C1071.46 339.624 1073.7 341.416 1075.75 343.208L1071.52 349.64C1068.19 346.44 1064.83 343.656 1061.44 341.288C1058.11 338.92 1054.66 337.064 1051.07 335.72C1047.49 334.376 1043.68 333.704 1039.65 333.704C1036 333.704 1033.03 334.44 1030.72 335.912C1028.48 337.32 1027.36 339.176 1027.36 341.48C1027.36 343.912 1028.45 345.8 1030.63 347.144C1032.8 348.424 1035.62 349.064 1039.07 349.064C1041.83 349.064 1043.94 348.616 1045.41 347.72C1046.95 346.824 1048 345.608 1048.58 344.072C1049.22 342.536 1049.54 340.712 1049.54 338.6C1049.54 336.872 1049.47 334.536 1049.35 331.592C1049.22 328.648 1049.06 325.448 1048.87 321.992C1048.67 318.472 1048.51 314.888 1048.39 311.24C1048.26 307.592 1048.19 304.168 1048.19 300.968C1048.19 297.704 1048.19 294.632 1048.19 291.752C1048.19 288.872 1048.19 286.6 1048.19 284.936C1048.19 284.104 1048.16 283.144 1048.1 282.056C1048.03 280.904 1047.94 279.912 1047.81 279.08H1056.45ZM1009.03 279.656C1008.83 280.168 1008.61 280.84 1008.35 281.672C1008.16 282.44 1007.97 283.24 1007.78 284.072C1007.65 284.904 1007.52 285.608 1007.39 286.184C1007.01 287.976 1006.59 290.12 1006.15 292.616C1005.76 295.048 1005.35 297.704 1004.9 300.584C1004.45 303.4 1004.03 306.28 1003.65 309.224C1003.33 312.104 1003.07 314.888 1002.88 317.576C1002.69 320.264 1002.59 322.696 1002.59 324.872C1002.59 327.176 1002.66 329.384 1002.79 331.496C1002.98 333.608 1003.23 335.848 1003.55 338.216C1004.07 336.744 1004.64 335.176 1005.28 333.512C1005.92 331.848 1006.56 330.184 1007.2 328.52C1007.91 326.856 1008.51 325.384 1009.03 324.104L1012.96 327.176C1012.19 329.352 1011.33 331.816 1010.37 334.568C1009.47 337.256 1008.61 339.848 1007.78 342.344C1007.01 344.776 1006.47 346.792 1006.15 348.392C1006.02 349.032 1005.89 349.768 1005.76 350.6C1005.7 351.432 1005.7 352.136 1005.76 352.712C1005.76 353.16 1005.76 353.704 1005.76 354.344C1005.83 354.984 1005.89 355.56 1005.95 356.072L999.235 356.552C998.275 353.096 997.411 348.808 996.643 343.688C995.939 338.504 995.587 332.68 995.587 326.216C995.587 322.632 995.747 318.92 996.067 315.08C996.451 311.176 996.867 307.368 997.315 303.656C997.827 299.944 998.307 296.552 998.755 293.48C999.267 290.344 999.683 287.784 1000 285.8C1000.13 284.712 1000.26 283.56 1000.39 282.344C1000.51 281.128 1000.58 280.008 1000.58 278.984L1009.03 279.656ZM1123.27 329.768C1122.75 327.144 1122.85 324.776 1123.55 322.664C1124.32 320.552 1125.44 318.664 1126.91 317C1128.45 315.272 1130.11 313.704 1131.91 312.296C1133.76 310.824 1135.52 309.384 1137.19 307.976C1138.85 306.568 1140.23 305.128 1141.31 303.656C1142.4 302.12 1142.95 300.456 1142.95 298.664C1142.95 296.424 1142.4 294.44 1141.31 292.712C1140.23 290.984 1138.63 289.64 1136.51 288.68C1134.4 287.656 1131.68 287.144 1128.35 287.144C1125.09 287.144 1121.92 287.88 1118.85 289.352C1115.84 290.76 1112.96 292.936 1110.21 295.88L1105.03 291.08C1108.23 287.688 1111.78 285 1115.68 283.016C1119.59 280.968 1124.13 279.944 1129.31 279.944C1133.86 279.944 1137.76 280.68 1141.03 282.152C1144.35 283.624 1146.91 285.704 1148.71 288.392C1150.56 291.016 1151.49 294.184 1151.49 297.896C1151.49 300.328 1150.95 302.472 1149.86 304.328C1148.77 306.184 1147.36 307.88 1145.63 309.416C1143.97 310.952 1142.21 312.456 1140.35 313.928C1138.5 315.336 1136.77 316.808 1135.17 318.344C1133.63 319.88 1132.45 321.576 1131.62 323.432C1130.85 325.288 1130.69 327.4 1131.14 329.768H1123.27ZM1127.39 353.48C1125.67 353.48 1124.19 352.904 1122.98 351.752C1121.76 350.6 1121.15 349.064 1121.15 347.144C1121.15 345.224 1121.76 343.688 1122.98 342.536C1124.19 341.32 1125.67 340.712 1127.39 340.712C1129.06 340.712 1130.5 341.32 1131.71 342.536C1132.93 343.688 1133.54 345.224 1133.54 347.144C1133.54 349.064 1132.93 350.6 1131.71 351.752C1130.5 352.904 1129.06 353.48 1127.39 353.48Z" fill="black"/>
<path d="M386.6 593.4C386.333 595 386.067 597 385.8 599.4C385.667 601.8 385.467 604.2 385.2 606.6C385.067 609 385 611.067 385 612.8C384.867 616.933 384.8 621.667 384.8 627C384.933 632.2 385.067 637.667 385.2 643.4C385.467 649 385.867 654.6 386.4 660.2C387.467 671.267 389.267 681 391.8 689.4C394.333 697.667 397.4 704.133 401 708.8C404.733 713.467 408.933 715.8 413.6 715.8C416.133 715.8 418.6 714.667 421 712.4C423.4 710 425.667 706.867 427.8 703C430.067 699 432.067 694.6 433.8 689.8C435.667 684.867 437.2 679.933 438.4 675L451 689.2C447 700.533 442.933 709.533 438.8 716.2C434.8 722.733 430.667 727.467 426.4 730.4C422.267 733.333 417.933 734.8 413.4 734.8C407.133 734.8 401.067 732.533 395.2 728C389.333 723.333 384.267 715.867 380 705.6C375.733 695.2 372.667 681.4 370.8 664.2C370.133 658.333 369.6 652 369.2 645.2C368.933 638.4 368.733 631.933 368.6 625.8C368.6 619.667 368.6 614.667 368.6 610.8C368.6 608.533 368.533 605.6 368.4 602C368.267 598.4 367.867 595.4 367.2 593L386.6 593.4ZM490.8 599C494.4 603.533 497.8 608.867 501 615C504.333 621 507.333 627.467 510 634.4C512.8 641.2 515.267 648.267 517.4 655.6C519.667 662.933 521.467 670.267 522.8 677.6C524.267 684.8 525.333 691.733 526 698.4L510 705C509.2 695.933 507.8 686.733 505.8 677.4C503.8 667.933 501.333 658.8 498.4 650C495.467 641.067 492.067 632.667 488.2 624.8C484.333 616.933 480 610.133 475.2 604.4L490.8 599ZM586.6 593.4C586.333 595 586.067 597 585.8 599.4C585.667 601.8 585.467 604.2 585.2 606.6C585.067 609 585 611.067 585 612.8C584.867 616.933 584.8 621.667 584.8 627C584.933 632.2 585.067 637.667 585.2 643.4C585.467 649 585.867 654.6 586.4 660.2C587.467 671.267 589.267 681 591.8 689.4C594.333 697.667 597.4 704.133 601 708.8C604.733 713.467 608.933 715.8 613.6 715.8C616.133 715.8 618.6 714.667 621 712.4C623.4 710 625.667 706.867 627.8 703C630.067 699 632.067 694.6 633.8 689.8C635.667 684.867 637.2 679.933 638.4 675L651 689.2C647 700.533 642.933 709.533 638.8 716.2C634.8 722.733 630.667 727.467 626.4 730.4C622.267 733.333 617.933 734.8 613.4 734.8C607.133 734.8 601.067 732.533 595.2 728C589.333 723.333 584.267 715.867 580 705.6C575.733 695.2 572.667 681.4 570.8 664.2C570.133 658.333 569.6 652 569.2 645.2C568.933 638.4 568.733 631.933 568.6 625.8C568.6 619.667 568.6 614.667 568.6 610.8C568.6 608.533 568.533 605.6 568.4 602C568.267 598.4 567.867 595.4 567.2 593L586.6 593.4ZM690.8 599C694.4 603.533 697.8 608.867 701 615C704.333 621 707.333 627.467 710 634.4C712.8 641.2 715.267 648.267 717.4 655.6C719.667 662.933 721.467 670.267 722.8 677.6C724.267 684.8 725.333 691.733 726 698.4L710 705C709.2 695.933 707.8 686.733 705.8 677.4C703.8 667.933 701.333 658.8 698.4 650C695.467 641.067 692.067 632.667 688.2 624.8C684.333 616.933 680 610.133 675.2 604.4L690.8 599ZM786.6 593.4C786.333 595 786.067 597 785.8 599.4C785.667 601.8 785.467 604.2 785.2 606.6C785.067 609 785 611.067 785 612.8C784.867 616.933 784.8 621.667 784.8 627C784.933 632.2 785.067 637.667 785.2 643.4C785.467 649 785.867 654.6 786.4 660.2C787.467 671.267 789.267 681 791.8 689.4C794.333 697.667 797.4 704.133 801 708.8C804.733 713.467 808.933 715.8 813.6 715.8C816.133 715.8 818.6 714.667 821 712.4C823.4 710 825.667 706.867 827.8 703C830.067 699 832.067 694.6 833.8 689.8C835.667 684.867 837.2 679.933 838.4 675L851 689.2C847 700.533 842.933 709.533 838.8 716.2C834.8 722.733 830.667 727.467 826.4 730.4C822.267 733.333 817.933 734.8 813.4 734.8C807.133 734.8 801.067 732.533 795.2 728C789.333 723.333 784.267 715.867 780 705.6C775.733 695.2 772.667 681.4 770.8 664.2C770.133 658.333 769.6 652 769.2 645.2C768.933 638.4 768.733 631.933 768.6 625.8C768.6 619.667 768.6 614.667 768.6 610.8C768.6 608.533 768.533 605.6 768.4 602C768.267 598.4 767.867 595.4 767.2 593L786.6 593.4ZM890.8 599C894.4 603.533 897.8 608.867 901 615C904.333 621 907.333 627.467 910 634.4C912.8 641.2 915.267 648.267 917.4 655.6C919.667 662.933 921.467 670.267 922.8 677.6C924.267 684.8 925.333 691.733 926 698.4L910 705C909.2 695.933 907.8 686.733 905.8 677.4C903.8 667.933 901.333 658.8 898.4 650C895.467 641.067 892.067 632.667 888.2 624.8C884.333 616.933 880 610.133 875.2 604.4L890.8 599ZM986.6 593.4C986.333 595 986.067 597 985.8 599.4C985.667 601.8 985.467 604.2 985.2 606.6C985.067 609 985 611.067 985 612.8C984.867 616.933 984.8 621.667 984.8 627C984.933 632.2 985.067 637.667 985.2 643.4C985.467 649 985.867 654.6 986.4 660.2C987.467 671.267 989.267 681 991.8 689.4C994.333 697.667 997.4 704.133 1001 708.8C1004.73 713.467 1008.93 715.8 1013.6 715.8C1016.13 715.8 1018.6 714.667 1021 712.4C1023.4 710 1025.67 706.867 1027.8 703C1030.07 699 1032.07 694.6 1033.8 689.8C1035.67 684.867 1037.2 679.933 1038.4 675L1051 689.2C1047 700.533 1042.93 709.533 1038.8 716.2C1034.8 722.733 1030.67 727.467 1026.4 730.4C1022.27 733.333 1017.93 734.8 1013.4 734.8C1007.13 734.8 1001.07 732.533 995.2 728C989.333 723.333 984.267 715.867 980 705.6C975.733 695.2 972.667 681.4 970.8 664.2C970.133 658.333 969.6 652 969.2 645.2C968.933 638.4 968.733 631.933 968.6 625.8C968.6 619.667 968.6 614.667 968.6 610.8C968.6 608.533 968.533 605.6 968.4 602C968.267 598.4 967.867 595.4 967.2 593L986.6 593.4ZM1090.8 599C1094.4 603.533 1097.8 608.867 1101 615C1104.33 621 1107.33 627.467 1110 634.4C1112.8 641.2 1115.27 648.267 1117.4 655.6C1119.67 662.933 1121.47 670.267 1122.8 677.6C1124.27 684.8 1125.33 691.733 1126 698.4L1110 705C1109.2 695.933 1107.8 686.733 1105.8 677.4C1103.8 667.933 1101.33 658.8 1098.4 650C1095.47 641.067 1092.07 632.667 1088.2 624.8C1084.33 616.933 1080 610.133 1075.2 604.4L1090.8 599ZM1186.6 593.4C1186.33 595 1186.07 597 1185.8 599.4C1185.67 601.8 1185.47 604.2 1185.2 606.6C1185.07 609 1185 611.067 1185 612.8C1184.87 616.933 1184.8 621.667 1184.8 627C1184.93 632.2 1185.07 637.667 1185.2 643.4C1185.47 649 1185.87 654.6 1186.4 660.2C1187.47 671.267 1189.27 681 1191.8 689.4C1194.33 697.667 1197.4 704.133 1201 708.8C1204.73 713.467 1208.93 715.8 1213.6 715.8C1216.13 715.8 1218.6 714.667 1221 712.4C1223.4 710 1225.67 706.867 1227.8 703C1230.07 699 1232.07 694.6 1233.8 689.8C1235.67 684.867 1237.2 679.933 1238.4 675L1251 689.2C1247 700.533 1242.93 709.533 1238.8 716.2C1234.8 722.733 1230.67 727.467 1226.4 730.4C1222.27 733.333 1217.93 734.8 1213.4 734.8C1207.13 734.8 1201.07 732.533 1195.2 728C1189.33 723.333 1184.27 715.867 1180 705.6C1175.73 695.2 1172.67 681.4 1170.8 664.2C1170.13 658.333 1169.6 652 1169.2 645.2C1168.93 638.4 1168.73 631.933 1168.6 625.8C1168.6 619.667 1168.6 614.667 1168.6 610.8C1168.6 608.533 1168.53 605.6 1168.4 602C1168.27 598.4 1167.87 595.4 1167.2 593L1186.6 593.4ZM1290.8 599C1294.4 603.533 1297.8 608.867 1301 615C1304.33 621 1307.33 627.467 1310 634.4C1312.8 641.2 1315.27 648.267 1317.4 655.6C1319.67 662.933 1321.47 670.267 1322.8 677.6C1324.27 684.8 1325.33 691.733 1326 698.4L1310 705C1309.2 695.933 1307.8 686.733 1305.8 677.4C1303.8 667.933 1301.33 658.8 1298.4 650C1295.47 641.067 1292.07 632.667 1288.2 624.8C1284.33 616.933 1280 610.133 1275.2 604.4L1290.8 599Z" fill="black"/>
</svg>
