<svg width="1684" height="1192" viewBox="0 0 1684 1192" fill="none" xmlns="http://www.w3.org/2000/svg">
<rect width="1684" height="1192" fill="white"/>
<mask id="path-1-inside-1_144_130" fill="white">
<path d="M582 182H755V355H582V182Z"/>
</mask>
<path d="M755 355V357H757V355H755ZM755 182H753V355H755H757V182H755ZM755 355V353H582V355V357H755V355Z" fill="black" mask="url(#path-1-inside-1_144_130)"/>
<g clip-path="url(#clip0_144_130)">
<mask id="path-3-inside-2_144_130" fill="white">
<path d="M755 182H928V355H755V182Z"/>
</mask>
<path d="M834.704 208.264C834.277 209.715 833.851 211.464 833.424 213.512C832.997 215.56 832.656 217.224 832.4 218.504C831.803 221.576 831.077 225.16 830.224 229.256C829.456 233.267 828.56 237.491 827.536 241.928C826.597 246.365 825.531 250.717 824.336 254.984C823.227 259.507 821.861 264.456 820.24 269.832C818.619 275.123 816.912 280.456 815.12 285.832C813.328 291.208 811.493 296.285 809.616 301.064C807.739 305.843 805.989 310.024 804.368 313.608L793.104 309.768C795.067 306.44 797.029 302.472 798.992 297.864C801.04 293.171 803.003 288.179 804.88 282.888C806.843 277.597 808.635 272.349 810.256 267.144C811.963 261.853 813.413 256.989 814.608 252.552C815.461 249.565 816.272 246.408 817.04 243.08C817.808 239.752 818.533 236.509 819.216 233.352C819.899 230.109 820.453 227.165 820.88 224.52C821.392 221.789 821.776 219.571 822.032 217.864C822.288 216.072 822.459 214.195 822.544 212.232C822.629 210.269 822.587 208.605 822.416 207.24L834.704 208.264ZM806.288 229.64C811.067 229.64 816.187 229.427 821.648 229C827.195 228.488 832.827 227.763 838.544 226.824C844.261 225.885 849.765 224.733 855.056 223.368V233.48C849.765 234.675 844.219 235.699 838.416 236.552C832.613 237.405 826.896 238.088 821.264 238.6C815.717 239.027 810.683 239.24 806.16 239.24C803.344 239.24 800.741 239.197 798.352 239.112C795.963 238.941 793.616 238.813 791.312 238.728L790.928 228.744C794 229.085 796.731 229.341 799.12 229.512C801.595 229.597 803.984 229.64 806.288 229.64ZM846.736 247.304C850.149 246.963 853.861 246.707 857.872 246.536C861.968 246.28 866.064 246.152 870.16 246.152C873.915 246.152 877.669 246.237 881.424 246.408C885.264 246.579 888.891 246.877 892.304 247.304L892.048 257.032C888.805 256.605 885.349 256.264 881.68 256.008C878.011 255.667 874.299 255.496 870.544 255.496C866.533 255.496 862.523 255.624 858.512 255.88C854.587 256.051 850.661 256.349 846.736 256.776V247.304ZM849.424 278.408C848.912 280.456 848.485 282.461 848.144 284.424C847.803 286.387 847.632 288.221 847.632 289.928C847.632 291.464 847.888 292.957 848.4 294.408C848.997 295.773 850.064 297.011 851.6 298.12C853.136 299.229 855.312 300.125 858.128 300.808C861.029 301.491 864.741 301.832 869.264 301.832C873.445 301.832 877.669 301.619 881.936 301.192C886.203 300.765 890.299 300.125 894.224 299.272L893.84 309.64C890.427 310.152 886.629 310.579 882.448 310.92C878.267 311.261 873.829 311.432 869.136 311.432C859.067 311.432 851.344 309.896 845.968 306.824C840.592 303.667 837.904 298.931 837.904 292.616C837.904 290.141 838.075 287.667 838.416 285.192C838.843 282.717 839.312 280.157 839.824 277.512L849.424 278.408Z" fill="black"/>
</g>
<path d="M928 355V357H930V355H928ZM755 355H753V357H755V355ZM928 182H926V355H928H930V182H928ZM928 355V353H755V355V357H928V355ZM755 355H757V182H755H753V355H755Z" fill="black" mask="url(#path-3-inside-2_144_130)"/>
<mask id="path-6-inside-3_144_130" fill="white">
<path d="M928 182H1101V355H928V182Z"/>
</mask>
<path d="M928 355H926V357H928V355ZM1101 355V353H928V355V357H1101V355ZM928 355H930V182H928H926V355H928Z" fill="black" mask="url(#path-6-inside-3_144_130)"/>
<mask id="path-8-inside-4_144_130" fill="white">
<path d="M582 355H755V528H582V355Z"/>
</mask>
<path d="M755 355H757V353H755V355ZM755 528V530H757V528H755ZM582 355V357H755V355V353H582V355ZM755 355H753V528H755H757V355H755ZM755 528V526H582V528V530H755V528Z" fill="black" mask="url(#path-8-inside-4_144_130)"/>
<rect x="756" y="356" width="171" height="171" stroke="black" stroke-width="2"/>
<mask id="path-11-inside-5_144_130" fill="white">
<path d="M928 355H1101V528H928V355Z"/>
</mask>
<path d="M928 355V353H926V355H928ZM928 528H926V530H928V528ZM928 355V357H1101V355V353H928V355ZM1101 528V526H928V528V530H1101V528ZM928 528H930V355H928H926V528H928Z" fill="black" mask="url(#path-11-inside-5_144_130)"/>
<mask id="path-13-inside-6_144_130" fill="white">
<path d="M582 528H755V701H582V528Z"/>
</mask>
<path d="M755 528H757V526H755V528ZM582 528V530H755V528V526H582V528ZM755 528H753V701H755H757V528H755Z" fill="black" mask="url(#path-13-inside-6_144_130)"/>
<mask id="path-15-inside-7_144_130" fill="white">
<path d="M755 528H928V701H755V528Z"/>
</mask>
<path d="M755 528V526H753V528H755ZM928 528H930V526H928V528ZM755 528V530H928V528V526H755V528ZM928 528H926V701H928H930V528H928ZM755 701H757V528H755H753V701H755Z" fill="black" mask="url(#path-15-inside-7_144_130)"/>
<mask id="path-17-inside-8_144_130" fill="white">
<path d="M928 528H1101V701H928V528Z"/>
</mask>
<path d="M928 528V526H926V528H928ZM928 528V530H1101V528V526H928V528ZM928 701H930V528H928H926V701H928Z" fill="black" mask="url(#path-17-inside-8_144_130)"/>
<path d="M624.544 569.656C624.373 570.68 624.203 571.96 624.032 573.496C623.947 575.032 623.819 576.568 623.648 578.104C623.563 579.64 623.52 580.963 623.52 582.072C623.435 584.717 623.392 587.747 623.392 591.16C623.477 594.488 623.563 597.987 623.648 601.656C623.819 605.24 624.075 608.824 624.416 612.408C625.099 619.491 626.251 625.72 627.872 631.096C629.493 636.387 631.456 640.525 633.76 643.512C636.149 646.499 638.837 647.992 641.824 647.992C643.445 647.992 645.024 647.267 646.56 645.816C648.096 644.28 649.547 642.275 650.912 639.8C652.363 637.24 653.643 634.424 654.752 631.352C655.947 628.195 656.928 625.037 657.696 621.88L665.76 630.968C663.2 638.221 660.597 643.981 657.952 648.248C655.392 652.429 652.747 655.459 650.016 657.336C647.371 659.213 644.597 660.152 641.696 660.152C637.685 660.152 633.803 658.701 630.048 655.8C626.293 652.813 623.051 648.035 620.32 641.464C617.589 634.808 615.627 625.976 614.432 614.968C614.005 611.213 613.664 607.16 613.408 602.808C613.237 598.456 613.109 594.317 613.024 590.392C613.024 586.467 613.024 583.267 613.024 580.792C613.024 579.341 612.981 577.464 612.896 575.16C612.811 572.856 612.555 570.936 612.128 569.4L624.544 569.656ZM691.232 573.24C693.536 576.141 695.712 579.555 697.76 583.48C699.893 587.32 701.813 591.459 703.52 595.896C705.312 600.248 706.891 604.771 708.256 609.464C709.707 614.157 710.859 618.851 711.712 623.544C712.651 628.152 713.333 632.589 713.76 636.856L703.52 641.08C703.008 635.277 702.112 629.389 700.832 623.416C699.552 617.357 697.973 611.512 696.096 605.88C694.219 600.163 692.043 594.787 689.568 589.752C687.093 584.717 684.32 580.365 681.248 576.696L691.232 573.24Z" fill="black"/>
<path d="M1029.34 387.368C1029.17 388.477 1029 389.715 1028.83 391.08C1028.75 392.445 1028.66 394.067 1028.58 395.944C1028.58 397.224 1028.53 399.144 1028.45 401.704C1028.45 404.264 1028.45 407.165 1028.45 410.408C1028.45 413.565 1028.45 416.765 1028.45 420.008C1028.45 423.251 1028.45 426.237 1028.45 428.968C1028.45 433.235 1028.53 437.715 1028.7 442.408C1028.87 447.101 1029.09 451.667 1029.34 456.104C1029.6 460.541 1029.81 464.595 1029.98 468.264C1030.15 471.933 1030.24 474.835 1030.24 476.968C1030.24 479.955 1029.51 482.813 1028.06 485.544C1026.7 488.275 1024.35 490.493 1021.02 492.2C1017.78 493.992 1013.34 494.888 1007.71 494.888C998.496 494.888 991.456 493.267 986.592 490.024C981.728 486.867 979.296 482.216 979.296 476.072C979.296 472.147 980.448 468.733 982.752 465.832C985.141 462.931 988.555 460.669 992.992 459.048C997.429 457.341 1002.72 456.488 1008.86 456.488C1015.61 456.488 1021.92 457.299 1027.81 458.92C1033.78 460.456 1039.24 462.419 1044.19 464.808C1049.14 467.197 1053.54 469.715 1057.38 472.36C1061.22 474.92 1064.37 477.224 1066.85 479.272L1060.96 488.36C1058.06 485.629 1054.69 482.899 1050.85 480.168C1047.09 477.437 1042.95 474.92 1038.43 472.616C1033.99 470.312 1029.17 468.477 1023.97 467.112C1018.85 465.661 1013.39 464.936 1007.58 464.936C1001.44 464.936 996.747 465.96 993.504 468.008C990.347 470.056 988.768 472.573 988.768 475.56C988.768 477.437 989.365 479.187 990.56 480.808C991.755 482.344 993.675 483.581 996.32 484.52C998.965 485.459 1002.38 485.928 1006.56 485.928C1009.03 485.928 1011.3 485.629 1013.34 485.032C1015.39 484.349 1017.01 483.197 1018.21 481.576C1019.49 479.955 1020.13 477.693 1020.13 474.792C1020.13 472.317 1020.04 469.117 1019.87 465.192C1019.79 461.181 1019.66 456.957 1019.49 452.52C1019.32 447.997 1019.15 443.645 1018.98 439.464C1018.89 435.283 1018.85 431.784 1018.85 428.968C1018.85 426.067 1018.85 423.123 1018.85 420.136C1018.85 417.064 1018.85 414.035 1018.85 411.048C1018.85 408.061 1018.85 405.203 1018.85 402.472C1018.93 399.741 1018.98 397.267 1018.98 395.048C1018.98 394.024 1018.93 392.701 1018.85 391.08C1018.76 389.459 1018.63 388.221 1018.46 387.368H1029.34ZM980.32 401.32C982.453 401.661 984.928 402.003 987.744 402.344C990.56 402.685 993.504 403.027 996.576 403.368C999.733 403.624 1002.72 403.837 1005.54 404.008C1008.44 404.093 1010.95 404.136 1013.09 404.136C1021.19 404.136 1029.47 403.837 1037.92 403.24C1046.45 402.643 1054.86 401.661 1063.14 400.296L1063.01 409.64C1058.31 410.152 1053.19 410.664 1047.65 411.176C1042.1 411.688 1036.38 412.115 1030.5 412.456C1024.69 412.797 1018.93 412.968 1013.22 412.968C1010.23 412.968 1006.69 412.84 1002.59 412.584C998.496 412.328 994.443 412.029 990.432 411.688C986.507 411.347 983.179 411.048 980.448 410.792L980.32 401.32ZM979.68 428.456C981.984 428.797 984.544 429.139 987.36 429.48C990.176 429.821 993.077 430.077 996.064 430.248C999.051 430.419 1001.91 430.589 1004.64 430.76C1007.37 430.845 1009.8 430.888 1011.94 430.888C1018.17 430.888 1024.18 430.76 1029.98 430.504C1035.87 430.163 1041.63 429.736 1047.26 429.224C1052.98 428.627 1058.61 427.901 1064.16 427.048L1064.03 436.648C1059.77 437.245 1055.5 437.757 1051.23 438.184C1047.05 438.525 1042.83 438.824 1038.56 439.08C1034.38 439.336 1030.07 439.549 1025.63 439.72C1021.28 439.805 1016.67 439.848 1011.81 439.848C1008.91 439.848 1005.54 439.763 1001.7 439.592C997.941 439.421 994.101 439.208 990.176 438.952C986.336 438.696 982.88 438.397 979.808 438.056L979.68 428.456Z" fill="black"/>
<path d="M819.392 388.008C818.709 390.397 818.027 393.171 817.344 396.328C816.747 399.4 816.149 402.643 815.552 406.056C815.04 409.384 814.571 412.584 814.144 415.656C813.803 418.728 813.547 421.373 813.376 423.592C814.741 420.349 816.533 417.021 818.752 413.608C820.971 410.195 823.616 407.08 826.688 404.264C829.76 401.363 833.088 399.016 836.672 397.224C840.341 395.432 844.181 394.536 848.192 394.536C853.909 394.536 858.944 396.328 863.296 399.912C867.733 403.496 871.189 408.573 873.664 415.144C876.139 421.715 877.376 429.48 877.376 438.44C877.376 447.315 876.053 455.037 873.408 461.608C870.763 468.093 867.051 473.597 862.272 478.12C857.493 482.643 851.776 486.312 845.12 489.128C838.549 491.944 831.296 494.035 823.36 495.4L817.344 486.184C824.256 485.16 830.699 483.624 836.672 481.576C842.731 479.443 848.021 476.584 852.544 473C857.067 469.331 860.565 464.68 863.04 459.048C865.6 453.416 866.88 446.589 866.88 438.568C866.88 431.827 866.112 425.853 864.576 420.648C863.04 415.357 860.779 411.219 857.792 408.232C854.805 405.245 851.051 403.752 846.528 403.752C842.517 403.752 838.677 405.032 835.008 407.592C831.339 410.152 827.968 413.48 824.896 417.576C821.909 421.587 819.477 425.939 817.6 430.632C815.723 435.24 814.571 439.635 814.144 443.816C813.803 446.291 813.632 448.723 813.632 451.112C813.717 453.501 813.973 456.317 814.4 459.56L804.544 460.328C804.203 457.939 803.861 454.995 803.52 451.496C803.264 447.997 803.136 444.157 803.136 439.976C803.136 436.989 803.264 433.661 803.52 429.992C803.861 426.237 804.203 422.483 804.544 418.728C804.971 414.888 805.397 411.219 805.824 407.72C806.336 404.221 806.763 401.192 807.104 398.632C807.36 396.669 807.573 394.792 807.744 393C807.915 391.123 808.043 389.331 808.128 387.624L819.392 388.008Z" fill="black"/>
<path d="M676.256 387.624C676.256 388.051 676.171 388.819 676 389.928C675.915 391.037 675.829 392.147 675.744 393.256C675.744 394.28 675.701 395.091 675.616 395.688C675.531 397.309 675.488 399.528 675.488 402.344C675.488 405.16 675.488 408.232 675.488 411.56C675.488 414.888 675.488 418.259 675.488 421.672C675.573 425.085 675.616 428.285 675.616 431.272C675.701 434.259 675.744 436.776 675.744 438.824L665.888 433.96C665.888 432.765 665.888 430.973 665.888 428.584C665.888 426.109 665.888 423.293 665.888 420.136C665.888 416.893 665.845 413.693 665.76 410.536C665.76 407.379 665.717 404.477 665.632 401.832C665.547 399.187 665.461 397.139 665.376 395.688C665.291 393.981 665.163 392.36 664.992 390.824C664.821 389.203 664.693 388.136 664.608 387.624H676.256ZM608.288 405.416C611.787 405.416 615.755 405.373 620.192 405.288C624.629 405.117 629.323 404.947 634.272 404.776C639.307 404.605 644.384 404.477 649.504 404.392C654.624 404.307 659.531 404.221 664.224 404.136C669.003 404.051 673.397 404.008 677.408 404.008C681.248 404.008 685.088 404.008 688.928 404.008C692.768 404.008 696.352 404.008 699.68 404.008C703.093 404.008 706.08 404.051 708.64 404.136C711.285 404.136 713.376 404.136 714.912 404.136L714.784 413.608C711.2 413.437 706.379 413.309 700.32 413.224C694.347 413.053 686.667 412.968 677.28 412.968C671.733 412.968 665.931 413.053 659.872 413.224C653.899 413.309 647.883 413.437 641.824 413.608C635.765 413.779 629.877 414.035 624.16 414.376C618.528 414.632 613.323 414.931 608.544 415.272L608.288 405.416ZM675.488 442.664C675.488 448.296 674.635 453.032 672.928 456.872C671.307 460.712 669.003 463.571 666.016 465.448C663.115 467.325 659.701 468.264 655.776 468.264C653.131 468.264 650.528 467.837 647.968 466.984C645.493 466.045 643.232 464.68 641.184 462.888C639.221 461.011 637.643 458.749 636.448 456.104C635.339 453.373 634.784 450.301 634.784 446.888C634.784 442.621 635.808 438.824 637.856 435.496C639.904 432.168 642.635 429.523 646.048 427.56C649.547 425.597 653.301 424.616 657.312 424.616C662.347 424.616 666.485 425.768 669.728 428.072C673.056 430.291 675.573 433.363 677.28 437.288C678.987 441.128 679.84 445.523 679.84 450.472C679.84 454.739 679.2 459.091 677.92 463.528C676.725 467.965 674.677 472.232 671.776 476.328C668.96 480.424 665.077 484.179 660.128 487.592C655.264 490.92 649.077 493.693 641.568 495.912L632.992 487.464C638.795 486.099 644 484.349 648.608 482.216C653.216 480.083 657.099 477.48 660.256 474.408C663.413 471.336 665.803 467.752 667.424 463.656C669.131 459.56 669.984 454.867 669.984 449.576C669.984 443.773 668.747 439.592 666.272 437.032C663.797 434.472 660.811 433.192 657.312 433.192C655.093 433.192 653.003 433.747 651.04 434.856C649.077 435.88 647.456 437.416 646.176 439.464C644.981 441.512 644.384 443.944 644.384 446.76C644.384 450.771 645.664 453.885 648.224 456.104C650.869 458.323 653.941 459.432 657.44 459.432C660.085 459.432 662.347 458.707 664.224 457.256C666.101 455.72 667.424 453.459 668.192 450.472C669.045 447.4 669.131 443.603 668.448 439.08L675.488 442.664Z" fill="black"/>
<path d="M652.064 209.16C651.808 210.269 651.552 211.507 651.296 212.872C651.04 214.152 650.784 215.432 650.528 216.712C650.272 218.248 649.888 220.339 649.376 222.984C648.949 225.629 648.48 228.445 647.968 231.432C647.456 234.333 646.859 237.107 646.176 239.752C645.323 243.421 644.256 247.56 642.976 252.168C641.696 256.691 640.245 261.512 638.624 266.632C637.003 271.752 635.168 277 633.12 282.376C631.072 287.667 628.811 292.957 626.336 298.248C623.861 303.453 621.173 308.36 618.272 312.968L607.776 308.872C610.763 304.947 613.493 300.552 615.968 295.688C618.528 290.824 620.875 285.789 623.008 280.584C625.141 275.293 627.061 270.088 628.768 264.968C630.56 259.848 632.053 255.112 633.248 250.76C634.443 246.408 635.381 242.653 636.064 239.496C637.259 234.376 638.24 229.085 639.008 223.624C639.776 218.077 640.16 212.829 640.16 207.88L652.064 209.16ZM696.096 222.728C698.144 225.373 700.277 228.659 702.496 232.584C704.8 236.509 707.019 240.691 709.152 245.128C711.371 249.565 713.376 253.832 715.168 257.928C716.96 262.024 718.411 265.565 719.52 268.552L709.536 273.288C708.597 270.045 707.317 266.333 705.696 262.152C704.075 257.885 702.197 253.576 700.064 249.224C698.016 244.787 695.84 240.648 693.536 236.808C691.317 232.883 689.056 229.597 686.752 226.952L696.096 222.728ZM605.984 237.192C607.947 237.363 609.824 237.448 611.616 237.448C613.408 237.363 615.328 237.277 617.376 237.192C619.339 237.107 621.813 236.979 624.8 236.808C627.787 236.552 631.029 236.296 634.528 236.04C638.112 235.784 641.611 235.528 645.024 235.272C648.523 234.931 651.723 234.675 654.624 234.504C657.611 234.248 659.957 234.12 661.664 234.12C665.504 234.12 668.96 234.717 672.032 235.912C675.189 237.107 677.707 239.283 679.584 242.44C681.461 245.597 682.4 250.035 682.4 255.752C682.4 260.787 682.144 266.248 681.632 272.136C681.205 277.939 680.437 283.485 679.328 288.776C678.219 294.067 676.768 298.461 674.976 301.96C673.013 306.312 670.453 309.171 667.296 310.536C664.139 311.987 660.469 312.712 656.288 312.712C653.899 312.712 651.296 312.499 648.48 312.072C645.664 311.731 643.232 311.304 641.184 310.792L639.52 300.168C641.397 300.68 643.275 301.149 645.152 301.576C647.115 302.003 648.992 302.301 650.784 302.472C652.576 302.643 654.069 302.728 655.264 302.728C657.568 302.728 659.659 302.344 661.536 301.576C663.499 300.723 665.12 298.931 666.4 296.2C667.765 293.299 668.875 289.672 669.728 285.32C670.667 280.883 671.349 276.189 671.776 271.24C672.288 266.291 672.544 261.555 672.544 257.032C672.544 253.021 671.989 250.077 670.88 248.2C669.771 246.237 668.192 244.915 666.144 244.232C664.096 243.464 661.707 243.08 658.976 243.08C656.757 243.08 653.813 243.251 650.144 243.592C646.475 243.848 642.549 244.189 638.368 244.616C634.272 245.043 630.432 245.469 626.848 245.896C623.264 246.237 620.491 246.536 618.528 246.792C617.077 246.963 615.2 247.219 612.896 247.56C610.677 247.816 608.715 248.072 607.008 248.328L605.984 237.192Z" fill="black"/>
<path d="M1016.42 207.624C1016.07 208.392 1015.78 209.331 1015.52 210.44C1015.35 211.464 1015.14 212.445 1014.88 213.384C1014.2 216.883 1013.51 221.32 1012.83 226.696C1012.15 232.072 1011.59 237.832 1011.17 243.976C1010.74 250.035 1010.53 256.008 1010.53 261.896C1010.53 267.357 1010.87 272.691 1011.55 277.896C1012.32 283.101 1013.26 288.093 1014.37 292.872C1015.56 297.565 1016.8 301.917 1018.08 305.928L1008.86 308.744C1007.58 304.904 1006.39 300.467 1005.28 295.432C1004.17 290.312 1003.27 284.979 1002.59 279.432C1001.91 273.8 1001.57 268.296 1001.57 262.92C1001.57 258.483 1001.7 253.96 1001.95 249.352C1002.29 244.744 1002.68 240.264 1003.1 235.912C1003.53 231.475 1003.91 227.336 1004.26 223.496C1004.68 219.656 1005.07 216.328 1005.41 213.512C1005.49 212.403 1005.58 211.293 1005.66 210.184C1005.75 209.075 1005.75 208.136 1005.66 207.368L1016.42 207.624ZM995.68 223.496C1003.19 223.496 1010.61 223.283 1017.95 222.856C1025.29 222.429 1032.33 221.789 1039.07 220.936C1045.9 220.083 1052.3 218.973 1058.27 217.608L1058.4 227.08C1053.79 227.848 1048.8 228.573 1043.42 229.256C1038.13 229.853 1032.71 230.408 1027.17 230.92C1021.62 231.347 1016.16 231.688 1010.78 231.944C1005.41 232.2 1000.33 232.328 995.552 232.328C993.76 232.328 991.584 232.285 989.024 232.2C986.464 232.029 983.904 231.901 981.344 231.816C978.784 231.645 976.608 231.517 974.816 231.432L974.56 221.832C976.096 222.088 978.187 222.344 980.832 222.6C983.477 222.856 986.165 223.069 988.896 223.24C991.627 223.411 993.888 223.496 995.68 223.496ZM1049.06 238.472C1048.8 238.984 1048.5 239.709 1048.16 240.648C1047.9 241.501 1047.61 242.397 1047.26 243.336C1047.01 244.189 1046.75 245 1046.5 245.768C1043.94 253.619 1040.86 260.829 1037.28 267.4C1033.7 273.885 1029.81 279.688 1025.63 284.808C1021.45 289.843 1017.14 294.067 1012.7 297.48C1008.52 300.637 1004 303.283 999.136 305.416C994.272 307.549 989.579 308.616 985.056 308.616C982.325 308.616 979.808 308.019 977.504 306.824C975.2 305.629 973.365 303.837 972 301.448C970.635 299.059 969.952 296.072 969.952 292.488C969.952 288.136 970.891 283.827 972.768 279.56C974.645 275.208 977.205 271.112 980.448 267.272C983.776 263.432 987.531 260.019 991.712 257.032C995.979 253.96 1000.5 251.485 1005.28 249.608C1009.46 248.072 1013.98 246.835 1018.85 245.896C1023.8 244.957 1028.32 244.488 1032.42 244.488C1040.52 244.488 1047.52 245.896 1053.41 248.712C1059.3 251.528 1063.82 255.368 1066.98 260.232C1070.22 265.011 1071.84 270.387 1071.84 276.36C1071.84 280.968 1071.03 285.363 1069.41 289.544C1067.87 293.725 1065.4 297.565 1061.98 301.064C1058.66 304.477 1054.35 307.421 1049.06 309.896C1043.77 312.371 1037.41 314.205 1029.98 315.4L1024.48 306.824C1032.25 306.056 1038.9 304.264 1044.45 301.448C1049.99 298.632 1054.3 295.048 1057.38 290.696C1060.45 286.344 1061.98 281.395 1061.98 275.848C1061.98 271.667 1060.83 267.827 1058.53 264.328C1056.22 260.829 1052.85 258.013 1048.42 255.88C1044.06 253.661 1038.69 252.552 1032.29 252.552C1026.91 252.552 1021.92 253.192 1017.31 254.472C1012.79 255.752 1008.91 257.117 1005.66 258.568C1000.89 260.701 996.491 263.56 992.48 267.144C988.555 270.728 985.44 274.611 983.136 278.792C980.832 282.888 979.68 286.899 979.68 290.824C979.68 293.469 980.277 295.475 981.472 296.84C982.752 298.12 984.587 298.76 986.976 298.76C990.133 298.76 993.675 297.864 997.6 296.072C1001.61 294.28 1005.71 291.549 1009.89 287.88C1015.61 282.931 1020.9 276.872 1025.76 269.704C1030.71 262.536 1034.63 253.747 1037.54 243.336C1037.71 242.653 1037.88 241.885 1038.05 241.032C1038.22 240.179 1038.39 239.283 1038.56 238.344C1038.82 237.405 1038.94 236.595 1038.94 235.912L1049.06 238.472Z" fill="black"/>
<path d="M1060.19 592.584C1058.74 593.523 1057.21 594.419 1055.58 595.272C1053.96 596.125 1052.21 597.021 1050.34 597.96C1048.2 599.155 1045.56 600.52 1042.4 602.056C1039.24 603.592 1035.87 605.299 1032.29 607.176C1028.7 609.053 1025.12 611.016 1021.54 613.064C1017.95 615.112 1014.58 617.16 1011.42 619.208C1005.45 623.048 1000.76 627.101 997.344 631.368C994.016 635.635 992.352 640.2 992.352 645.064C992.352 650.355 994.869 654.579 999.904 657.736C1005.02 660.808 1012.62 662.344 1022.69 662.344C1027.38 662.344 1032.25 662.173 1037.28 661.832C1042.31 661.405 1047.14 660.851 1051.74 660.168C1056.44 659.485 1060.41 658.76 1063.65 657.992V669.384C1060.49 669.981 1056.74 670.493 1052.38 670.92C1048.12 671.432 1043.51 671.816 1038.56 672.072C1033.61 672.413 1028.49 672.584 1023.2 672.584C1017.14 672.584 1011.59 672.072 1006.56 671.048C1001.53 670.109 997.131 668.616 993.376 666.568C989.707 664.52 986.848 661.832 984.8 658.504C982.752 655.091 981.728 650.995 981.728 646.216C981.728 641.523 982.709 637.213 984.672 633.288C986.635 629.277 989.451 625.48 993.12 621.896C996.789 618.312 1001.14 614.856 1006.18 611.528C1009.42 609.309 1012.87 607.176 1016.54 605.128C1020.3 602.995 1023.97 600.947 1027.55 598.984C1031.14 597.021 1034.46 595.229 1037.54 593.608C1040.69 591.987 1043.34 590.621 1045.47 589.512C1047.26 588.403 1048.89 587.421 1050.34 586.568C1051.79 585.629 1053.19 584.605 1054.56 583.496L1060.19 592.584ZM995.424 569.416C997.387 574.877 999.477 580.211 1001.7 585.416C1004 590.621 1006.3 595.485 1008.61 600.008C1011 604.531 1013.17 608.541 1015.14 612.04L1006.3 617.288C1004.17 613.789 1001.91 609.651 999.52 604.872C997.131 600.093 994.741 595.016 992.352 589.64C989.963 584.264 987.616 578.931 985.312 573.64L995.424 569.416Z" fill="black"/>
<path d="M834.368 582.6C837.867 583.112 841.92 583.539 846.528 583.88C851.221 584.136 856.043 584.264 860.992 584.264C866.027 584.179 870.805 584.008 875.328 583.752C879.936 583.411 883.819 582.984 886.976 582.472V592.84C883.563 593.181 879.552 593.48 874.944 593.736C870.421 593.907 865.685 593.992 860.736 593.992C855.872 593.992 851.136 593.907 846.528 593.736C841.92 593.48 837.867 593.181 834.368 592.84V582.6ZM839.36 634.696C838.763 637 838.293 639.091 837.952 640.968C837.611 642.845 837.44 644.68 837.44 646.472C837.44 647.923 837.739 649.373 838.336 650.824C839.019 652.189 840.128 653.427 841.664 654.536C843.285 655.56 845.504 656.413 848.32 657.096C851.136 657.693 854.72 657.992 859.072 657.992C864.875 657.992 870.336 657.736 875.456 657.224C880.576 656.627 885.696 655.773 890.816 654.664L891.072 665.416C887.061 666.269 882.368 666.952 876.992 667.464C871.701 667.891 865.728 668.104 859.072 668.104C848.32 668.104 840.427 666.397 835.392 662.984C830.443 659.571 827.968 654.877 827.968 648.904C827.968 646.771 828.139 644.509 828.48 642.12C828.907 639.645 829.461 636.872 830.144 633.8L839.36 634.696ZM809.92 572.744C809.749 573.427 809.493 574.323 809.152 575.432C808.896 576.456 808.597 577.523 808.256 578.632C808 579.656 807.787 580.552 807.616 581.32C807.189 583.709 806.677 586.483 806.08 589.64C805.483 592.712 804.885 596.04 804.288 599.624C803.776 603.123 803.264 606.707 802.752 610.376C802.325 613.96 801.941 617.459 801.6 620.872C801.344 624.285 801.216 627.443 801.216 630.344C801.216 633.501 801.301 636.488 801.472 639.304C801.728 642.12 802.027 645.107 802.368 648.264C803.136 646.301 803.947 644.211 804.8 641.992C805.653 639.773 806.507 637.597 807.36 635.464C808.299 633.245 809.109 631.283 809.792 629.576L815.168 633.672C814.059 636.744 812.864 640.115 811.584 643.784C810.304 647.453 809.152 650.995 808.128 654.408C807.189 657.736 806.507 660.381 806.08 662.344C805.909 663.283 805.739 664.307 805.568 665.416C805.397 666.525 805.355 667.421 805.44 668.104C805.525 668.787 805.568 669.512 805.568 670.28C805.653 671.133 805.739 671.901 805.824 672.584L796.608 673.224C795.328 668.701 794.219 662.899 793.28 655.816C792.341 648.648 791.872 640.755 791.872 632.136C791.872 627.443 792.085 622.664 792.512 617.8C792.939 612.851 793.493 608.072 794.176 603.464C794.859 598.771 795.499 594.504 796.096 590.664C796.779 586.739 797.291 583.453 797.632 580.808C797.888 579.272 798.101 577.736 798.272 576.2C798.443 574.579 798.528 573.085 798.528 571.72L809.92 572.744Z" fill="black"/>
<rect x="250" y="904" width="169" height="169" stroke="black" stroke-width="4"/>
<mask id="path-28-inside-9_144_130" fill="white">
<path d="M495 902H668V1075H495V902Z"/>
</mask>
<path d="M668 902H672V898H668V902ZM668 1075V1079H672V1075H668ZM495 902V906H668V902V898H495V902ZM668 902H664V1075H668H672V902H668ZM668 1075V1071H495V1075V1079H668V1075Z" fill="black" mask="url(#path-28-inside-9_144_130)"/>
<mask id="path-30-inside-10_144_130" fill="white">
<path d="M742 902H915V1075H742V902Z"/>
</mask>
<path d="M742 902V898H738V902H742ZM742 902V906H915V902V898H742V902ZM742 1075H746V902H742H738V1075H742Z" fill="black" mask="url(#path-30-inside-10_144_130)"/>
<path d="M1018.65 994.592V982.304H1063.32V994.592H1018.65ZM1018.65 1017.63V1005.34H1063.32V1017.63H1018.65Z" fill="black"/>
<rect width="253" height="253" transform="translate(1240 862)" fill="#FF3636"/>
<path d="M1357.38 1012.65C1356.44 1007.87 1356.62 1003.55 1357.9 999.7C1359.3 995.85 1361.34 992.408 1364.03 989.375C1366.83 986.225 1369.86 983.367 1373.13 980.8C1376.51 978.117 1379.72 975.492 1382.75 972.925C1385.78 970.358 1388.29 967.733 1390.28 965.05C1392.26 962.25 1393.25 959.217 1393.25 955.95C1393.25 951.867 1392.26 948.25 1390.28 945.1C1388.29 941.95 1385.38 939.5 1381.53 937.75C1377.68 935.883 1372.72 934.95 1366.65 934.95C1360.7 934.95 1354.93 936.292 1349.33 938.975C1343.84 941.542 1338.59 945.508 1333.58 950.875L1324.13 942.125C1329.96 935.942 1336.43 931.042 1343.55 927.425C1350.67 923.692 1358.95 921.825 1368.4 921.825C1376.68 921.825 1383.8 923.167 1389.75 925.85C1395.82 928.533 1400.48 932.325 1403.75 937.225C1407.13 942.008 1408.83 947.783 1408.83 954.55C1408.83 958.983 1407.83 962.892 1405.85 966.275C1403.87 969.658 1401.3 972.75 1398.15 975.55C1395.12 978.35 1391.91 981.092 1388.53 983.775C1385.14 986.342 1381.99 989.025 1379.08 991.825C1376.28 994.625 1374.12 997.717 1372.6 1001.1C1371.2 1004.48 1370.91 1008.33 1371.73 1012.65H1357.38ZM1364.9 1055.88C1361.75 1055.88 1359.07 1054.83 1356.85 1052.72C1354.63 1050.62 1353.53 1047.82 1353.53 1044.32C1353.53 1040.82 1354.63 1038.02 1356.85 1035.92C1359.07 1033.71 1361.75 1032.6 1364.9 1032.6C1367.93 1032.6 1370.56 1033.71 1372.78 1035.92C1374.99 1038.02 1376.1 1040.82 1376.1 1044.32C1376.1 1047.82 1374.99 1050.62 1372.78 1052.72C1370.56 1054.83 1367.93 1055.88 1364.9 1055.88Z" fill="white"/>
<defs>
<clipPath id="clip0_144_130">
<path d="M755 182H928V355H755V182Z" fill="white"/>
</clipPath>
</defs>
</svg>
