<svg width="1684" height="1192" viewBox="0 0 1684 1192" fill="none" xmlns="http://www.w3.org/2000/svg">
<rect width="1684" height="1192" fill="white"/>
<path d="M362.505 670.25L389.255 590.75L324.755 547.5H403.755L432.005 462.25L460.755 547.5H539.255L474.755 590.75L502.005 670.25L432.005 619.5L362.505 670.25Z" fill="#FDDA13"/>
<path d="M765.8 531.6C763.533 533.067 761.133 534.467 758.6 535.8C756.067 537.133 753.333 538.533 750.4 540C747.067 541.867 742.933 544 738 546.4C733.067 548.8 727.8 551.467 722.2 554.4C716.6 557.333 711 560.4 705.4 563.6C699.8 566.8 694.533 570 689.6 573.2C680.267 579.2 672.933 585.533 667.6 592.2C662.4 598.867 659.8 606 659.8 613.6C659.8 621.867 663.733 628.467 671.6 633.4C679.6 638.2 691.467 640.6 707.2 640.6C714.533 640.6 722.133 640.333 730 639.8C737.867 639.133 745.4 638.267 752.6 637.2C759.933 636.133 766.133 635 771.2 633.8V651.6C766.267 652.533 760.4 653.333 753.6 654C746.933 654.8 739.733 655.4 732 655.8C724.267 656.333 716.267 656.6 708 656.6C698.533 656.6 689.867 655.8 682 654.2C674.133 652.733 667.267 650.4 661.4 647.2C655.667 644 651.2 639.8 648 634.6C644.8 629.267 643.2 622.867 643.2 615.4C643.2 608.067 644.733 601.333 647.8 595.2C650.867 588.933 655.267 583 661 577.4C666.733 571.8 673.533 566.4 681.4 561.2C686.467 557.733 691.867 554.4 697.6 551.2C703.467 547.867 709.2 544.667 714.8 541.6C720.4 538.533 725.6 535.733 730.4 533.2C735.333 530.667 739.467 528.533 742.8 526.8C745.6 525.067 748.133 523.533 750.4 522.2C752.667 520.733 754.867 519.133 757 517.4L765.8 531.6ZM664.6 495.4C667.667 503.933 670.933 512.267 674.4 520.4C678 528.533 681.6 536.133 685.2 543.2C688.933 550.267 692.333 556.533 695.4 562L681.6 570.2C678.267 564.733 674.733 558.267 671 550.8C667.267 543.333 663.533 535.4 659.8 527C656.067 518.6 652.4 510.267 648.8 502L664.6 495.4Z" fill="black"/>
<path d="M924.853 569.5V545.5H1012.1V569.5H924.853ZM924.853 614.5V590.5H1012.1V614.5H924.853Z" fill="black"/>
<circle cx="1234" cy="572" r="94" fill="#5683F3"/>
<path d="M755 896C752.867 897.333 750.533 898.667 748 900C745.467 901.333 742.733 902.733 739.8 904.2C735.267 906.6 729.933 909.333 723.8 912.4C717.667 915.467 711.133 918.867 704.2 922.6C697.4 926.333 690.8 930.4 684.4 934.8C675.067 940.8 667.733 947.133 662.4 953.8C657.2 960.467 654.6 967.6 654.6 975.2C654.6 983.467 658.533 990.067 666.4 995C674.267 999.8 686.133 1002.2 702 1002.2C709.333 1002.2 716.933 1001.93 724.8 1001.4C732.667 1000.73 740.2 999.867 747.4 998.8C754.733 997.733 760.933 996.6 766 995.4L765.8 1013.2C760.867 1014.13 755.067 1014.93 748.4 1015.6C741.733 1016.4 734.533 1017 726.8 1017.4C719.067 1017.93 711 1018.2 702.6 1018.2C693.267 1018.2 684.667 1017.4 676.8 1015.8C668.933 1014.33 662.067 1012 656.2 1008.8C650.467 1005.6 646 1001.4 642.8 996.2C639.6 990.867 638 984.467 638 977C638 969.667 639.467 962.933 642.4 956.8C645.467 950.533 649.867 944.6 655.6 939C661.467 933.4 668.267 928 676 922.8C682.8 918.133 689.733 913.867 696.8 910C703.867 906.133 710.533 902.6 716.8 899.4C723.2 896.067 728.533 893.2 732.8 890.8C735.6 889.2 738.133 887.667 740.4 886.2C742.667 884.733 744.867 883.133 747 881.4L755 896ZM659.2 857C662.267 865.533 665.6 873.933 669.2 882.2C672.8 890.333 676.4 897.933 680 905C683.6 912.067 686.933 918.267 690 923.6L676.4 931.8C673.067 926.333 669.533 919.867 665.8 912.4C662.067 904.933 658.267 897 654.4 888.6C650.667 880.2 647 871.867 643.4 863.6L659.2 857ZM758.4 855C760.133 857.4 762 860.267 764 863.6C766 866.8 767.933 870.067 769.8 873.4C771.8 876.733 773.467 879.8 774.8 882.6L764 887.4C762 883.267 759.467 878.533 756.4 873.2C753.333 867.867 750.4 863.333 747.6 859.6L758.4 855ZM780.4 847C782.267 849.4 784.2 852.267 786.2 855.6C788.333 858.933 790.4 862.267 792.4 865.6C794.4 868.8 796 871.667 797.2 874.2L786.6 879C784.333 874.733 781.667 870 778.6 864.8C775.667 859.6 772.733 855.133 769.8 851.4L780.4 847Z" fill="black"/>
<rect width="188" height="188" transform="translate(1140 841)" fill="#FF3636"/>
<path d="M1225.75 957.2C1224.95 953.1 1225.1 949.4 1226.2 946.1C1227.4 942.8 1229.15 939.85 1231.45 937.25C1233.85 934.55 1236.45 932.1 1239.25 929.9C1242.15 927.6 1244.9 925.35 1247.5 923.15C1250.1 920.95 1252.25 918.7 1253.95 916.4C1255.65 914 1256.5 911.4 1256.5 908.6C1256.5 905.1 1255.65 902 1253.95 899.3C1252.25 896.6 1249.75 894.5 1246.45 893C1243.15 891.4 1238.9 890.6 1233.7 890.6C1228.6 890.6 1223.65 891.75 1218.85 894.05C1214.15 896.25 1209.65 899.65 1205.35 904.25L1197.25 896.75C1202.25 891.45 1207.8 887.25 1213.9 884.15C1220 880.95 1227.1 879.35 1235.2 879.35C1242.3 879.35 1248.4 880.5 1253.5 882.8C1258.7 885.1 1262.7 888.35 1265.5 892.55C1268.4 896.65 1269.85 901.6 1269.85 907.4C1269.85 911.2 1269 914.55 1267.3 917.45C1265.6 920.35 1263.4 923 1260.7 925.4C1258.1 927.8 1255.35 930.15 1252.45 932.45C1249.55 934.65 1246.85 936.95 1244.35 939.35C1241.95 941.75 1240.1 944.4 1238.8 947.3C1237.6 950.2 1237.35 953.5 1238.05 957.2H1225.75ZM1232.2 994.25C1229.5 994.25 1227.2 993.35 1225.3 991.55C1223.4 989.75 1222.45 987.35 1222.45 984.35C1222.45 981.35 1223.4 978.95 1225.3 977.15C1227.2 975.25 1229.5 974.3 1232.2 974.3C1234.8 974.3 1237.05 975.25 1238.95 977.15C1240.85 978.95 1241.8 981.35 1241.8 984.35C1241.8 987.35 1240.85 989.75 1238.95 991.55C1237.05 993.35 1234.8 994.25 1232.2 994.25Z" fill="white"/>
<path d="M924.853 932.5V908.5H1012.1V932.5H924.853ZM924.853 977.5V953.5H1012.1V977.5H924.853Z" fill="black"/>
<circle cx="466" cy="935" r="94" fill="#F35656"/>
<circle cx="343" cy="151" r="94" fill="#5683F3"/>
<circle cx="1342" cy="151" r="94" fill="#F35656"/>
<path d="M437 141.5C431.753 141.5 427.5 145.753 427.5 151C427.5 156.247 431.753 160.5 437 160.5V151V141.5ZM1252.72 157.718C1256.43 154.008 1256.43 147.992 1252.72 144.282L1192.26 83.8249C1188.55 80.1149 1182.53 80.1149 1178.82 83.8249C1175.11 87.5348 1175.11 93.5499 1178.82 97.2599L1232.56 151L1178.82 204.74C1175.11 208.45 1175.11 214.465 1178.82 218.175C1182.53 221.885 1188.55 221.885 1192.26 218.175L1252.72 157.718ZM437 151V160.5H1246V151V141.5H437V151Z" fill="black"/>
</svg>
